{"glyphs":{"0":{"ha":882,"x_min":-6,"x_max":888,"o":"m 440 -17 q 213 48 315 -17 q 53 224 111 113 q -6 469 -6 336 q 53 714 -6 603 q 213 890 111 825 q 440 956 315 956 q 668 890 565 956 q 829 714 771 825 q 888 469 888 603 q 829 224 888 336 q 668 48 771 113 q 440 -17 565 -17 m 440 317 q 528 360 497 317 q 558 469 558 403 q 528 579 558 536 q 440 622 497 622 q 353 579 383 622 q 324 469 324 536 q 353 360 324 403 q 440 317 383 317 z "},"1":{"ha":421,"x_min":-11,"x_max":371,"o":"m 79 585 q 58 653 79 635 q -11 672 38 672 l -11 879 q 122 897 74 879 q 200 949 171 914 l 371 949 l 371 0 l 79 0 l 79 585 z "},"2":{"ha":692,"x_min":10,"x_max":696,"o":"m 10 261 q 216 405 143 326 q 289 557 289 483 q 256 635 289 607 q 174 664 224 664 q 38 622 114 664 l 38 910 q 152 948 85 933 q 286 963 219 963 q 476 924 393 963 q 604 818 558 886 q 650 663 650 750 q 593 458 650 564 q 436 261 536 351 l 696 261 l 696 0 l 10 0 l 10 261 z "},"3":{"ha":711,"x_min":29,"x_max":713,"o":"m 319 -12 q 148 8 226 -12 q 29 61 69 28 l 29 331 q 150 281 106 294 q 242 267 194 267 q 340 318 340 267 q 312 356 340 344 q 226 368 283 368 l 101 368 l 101 585 l 188 585 q 288 594 246 585 q 331 638 331 604 q 300 676 331 667 q 235 685 269 685 q 29 629 140 685 l 29 899 q 158 943 85 926 q 310 960 231 960 q 502 929 417 960 q 638 840 588 899 q 688 699 688 781 q 652 574 688 628 q 564 497 617 519 q 672 414 632 476 q 713 271 713 351 q 665 122 713 186 q 529 22 618 57 q 319 -12 440 -12 z "},"4":{"ha":781,"x_min":-11,"x_max":796,"o":"m 390 174 l -11 174 l -11 418 l 292 949 l 682 949 l 682 418 l 796 418 l 796 174 l 682 174 l 682 0 l 390 0 l 390 174 m 390 418 l 390 664 l 260 418 l 390 418 z "},"5":{"ha":719,"x_min":22,"x_max":729,"o":"m 314 -14 q 167 -1 249 -14 q 22 57 85 13 l 22 303 q 129 263 69 279 q 236 246 189 246 q 332 269 300 246 q 364 329 364 292 q 331 383 364 365 q 240 401 297 401 q 154 392 203 401 q 63 367 106 382 l 63 949 l 656 949 l 656 664 l 336 664 l 336 597 q 392 600 372 600 q 568 565 492 600 q 687 468 644 531 q 729 324 729 406 q 677 147 729 224 q 531 28 625 71 q 314 -14 438 -14 z "},"6":{"ha":789,"x_min":-7,"x_max":804,"o":"m 399 -17 q 187 29 279 -17 q 44 159 94 75 q -7 354 -7 243 q 69 658 -7 493 q 271 949 146 824 l 608 949 q 476 776 532 861 q 396 625 419 692 q 503 644 439 644 q 656 608 588 644 q 765 503 725 572 q 804 339 804 435 q 751 149 804 229 q 606 26 699 68 q 399 -17 514 -17 m 406 268 q 458 292 436 268 q 481 347 481 315 q 458 403 481 379 q 406 426 436 426 q 353 403 375 426 q 331 347 331 379 q 353 292 331 315 q 406 268 375 268 z "},"7":{"ha":682,"x_min":-17,"x_max":710,"o":"m 383 703 l -17 703 l -17 949 l 597 949 l 710 703 l 361 0 l 1 0 l 383 703 z "},"8":{"ha":874,"x_min":1,"x_max":874,"o":"m 438 -14 q 110 65 219 -14 q 1 289 1 144 q 40 424 1 368 q 144 497 78 479 q 58 566 90 515 q 26 690 26 617 q 439 957 26 957 q 747 891 644 957 q 849 699 849 825 q 811 569 849 622 q 708 497 774 515 q 829 419 785 478 q 874 276 874 360 q 757 58 874 129 q 438 -14 640 -14 m 438 235 q 492 258 469 235 q 514 311 514 281 q 492 365 514 343 q 438 388 469 388 q 384 365 407 388 q 361 311 361 343 q 384 258 361 281 q 438 235 407 235 m 438 601 q 485 622 465 601 q 506 669 506 642 q 485 717 506 697 q 438 738 465 738 q 390 717 410 738 q 369 669 369 697 q 390 622 369 642 q 438 601 410 601 z "},"9":{"ha":789,"x_min":-15,"x_max":796,"o":"m 181 0 q 330 190 279 113 q 397 325 381 268 q 286 304 351 304 q 133 340 201 304 q 24 445 64 376 q -15 610 -15 514 q 38 800 -15 719 q 183 923 90 881 q 390 965 275 965 q 602 919 510 965 q 745 790 694 874 q 796 594 796 706 q 719 290 796 456 q 518 0 643 125 l 181 0 m 383 522 q 436 546 414 522 q 458 601 458 569 q 436 657 458 633 q 383 681 414 681 q 331 657 353 681 q 308 601 308 633 q 331 546 308 569 q 383 522 353 522 z "}," ":{"ha":347,"x_min":0,"x_max":0,"o":""},"A":{"ha":963,"x_min":-33,"x_max":996,"o":"m 264 972 l 697 972 l 996 0 l 640 0 l 603 168 l 360 168 l 322 0 l -33 0 l 264 972 m 549 406 l 481 704 l 414 406 l 549 406 z "},"Á":{"ha":963,"x_min":-33,"x_max":996,"o":"m 264 972 l 697 972 l 996 0 l 640 0 l 603 168 l 360 168 l 322 0 l -33 0 l 264 972 m 549 406 l 481 704 l 414 406 l 549 406 m 488 1278 l 776 1278 l 604 1019 l 369 1019 l 488 1278 z "},"Ă":{"ha":963,"x_min":-33,"x_max":996,"o":"m 264 972 l 697 972 l 996 0 l 640 0 l 603 168 l 360 168 l 322 0 l -33 0 l 264 972 m 549 406 l 481 704 l 414 406 l 549 406 m 481 1004 q 281 1079 358 1004 q 201 1278 204 1154 l 374 1278 q 406 1206 376 1233 q 481 1179 436 1179 q 558 1206 528 1179 q 590 1278 588 1233 l 763 1278 q 683 1079 760 1154 q 481 1004 607 1004 z "},"Â":{"ha":963,"x_min":-33,"x_max":996,"o":"m 264 972 l 697 972 l 996 0 l 640 0 l 603 168 l 360 168 l 322 0 l -33 0 l 264 972 m 549 406 l 481 704 l 414 406 l 549 406 m 326 1278 l 635 1278 l 826 1019 l 588 1019 l 482 1168 l 376 1019 l 138 1019 l 326 1278 z "},"Ä":{"ha":963,"x_min":-33,"x_max":996,"o":"m 264 972 l 697 972 l 996 0 l 640 0 l 603 168 l 360 168 l 322 0 l -33 0 l 264 972 m 549 406 l 481 704 l 414 406 l 549 406 m 307 1014 q 195 1051 238 1014 q 153 1147 153 1088 q 194 1247 153 1210 q 307 1283 235 1283 q 418 1246 376 1283 q 460 1147 460 1208 q 418 1051 460 1088 q 307 1014 376 1014 m 657 1014 q 545 1051 588 1014 q 503 1147 503 1088 q 545 1246 503 1208 q 657 1283 588 1283 q 769 1246 726 1283 q 811 1147 811 1208 q 769 1051 811 1088 q 657 1014 726 1014 z "},"À":{"ha":963,"x_min":-33,"x_max":996,"o":"m 264 972 l 697 972 l 996 0 l 640 0 l 603 168 l 360 168 l 322 0 l -33 0 l 264 972 m 549 406 l 481 704 l 414 406 l 549 406 m 186 1278 l 475 1278 l 593 1019 l 358 1019 l 186 1278 z "},"Ā":{"ha":963,"x_min":-33,"x_max":996,"o":"m 264 972 l 697 972 l 996 0 l 640 0 l 603 168 l 360 168 l 322 0 l -33 0 l 264 972 m 549 406 l 481 704 l 414 406 l 549 406 m 228 1239 l 735 1239 l 735 1046 l 228 1046 l 228 1239 z "},"Ą":{"ha":963,"x_min":-33,"x_max":996,"o":"m 264 972 l 697 972 l 996 0 l 763 0 q 710 -52 729 -26 q 690 -111 690 -78 q 706 -156 690 -140 q 750 -172 721 -172 q 831 -144 790 -172 l 831 -274 q 689 -307 768 -307 q 554 -269 604 -307 q 504 -168 504 -232 q 538 -72 504 -119 q 636 17 572 -25 l 603 168 l 360 168 l 322 0 l -33 0 l 264 972 m 549 406 l 481 704 l 414 406 l 549 406 z "},"Å":{"ha":963,"x_min":-33,"x_max":996,"o":"m 264 972 l 697 972 l 996 0 l 640 0 l 603 168 l 360 168 l 322 0 l -33 0 l 264 972 m 549 406 l 481 704 l 414 406 l 549 406 m 482 994 q 391 1019 433 994 q 324 1085 349 1043 q 299 1176 299 1128 q 324 1267 299 1225 q 391 1334 349 1310 q 482 1358 433 1358 q 574 1334 532 1358 q 641 1268 617 1310 q 665 1176 665 1226 q 641 1085 665 1126 q 574 1019 617 1043 q 482 994 532 994 m 482 1139 q 508 1151 497 1139 q 519 1176 519 1163 q 508 1203 519 1192 q 482 1214 497 1214 q 456 1203 468 1214 q 444 1176 444 1192 q 456 1151 444 1163 q 482 1139 468 1139 z "},"Ã":{"ha":963,"x_min":-33,"x_max":996,"o":"m 264 972 l 697 972 l 996 0 l 640 0 l 603 168 l 360 168 l 322 0 l -33 0 l 264 972 m 549 406 l 481 704 l 414 406 l 549 406 m 240 1185 q 363 1275 285 1275 q 436 1260 400 1275 l 553 1211 q 600 1201 578 1201 q 686 1279 658 1201 l 722 1117 q 601 1026 679 1026 q 526 1042 568 1026 l 408 1089 q 363 1099 385 1099 q 276 1022 303 1099 l 240 1185 z "},"Æ":{"ha":1156,"x_min":-33,"x_max":1124,"o":"m 492 168 l 363 168 l 322 0 l -33 0 l 264 972 l 1110 972 l 1110 690 l 847 690 l 847 610 l 1088 610 l 1088 372 l 847 372 l 847 282 l 1124 282 l 1124 0 l 492 0 l 492 168 m 492 406 l 492 701 l 419 406 l 492 406 z "},"B":{"ha":882,"x_min":53,"x_max":881,"o":"m 53 972 l 499 972 q 847 710 847 972 q 813 578 847 624 q 715 508 778 533 q 842 413 804 474 q 881 264 881 353 q 835 103 881 161 q 706 23 790 46 q 493 0 622 0 l 53 0 l 53 972 m 446 242 q 516 263 496 242 q 536 319 536 283 q 515 376 536 360 q 456 393 494 393 l 406 393 l 406 242 l 446 242 m 456 590 q 532 663 532 590 q 446 732 532 732 l 406 732 l 406 590 l 456 590 z "},"C":{"ha":764,"x_min":-4,"x_max":718,"o":"m 465 -24 q 224 40 331 -24 q 56 220 117 104 q -4 486 -4 336 q 56 752 -4 636 q 224 932 117 868 q 465 996 331 996 q 718 929 604 996 l 718 600 q 636 666 676 642 q 536 690 596 690 q 399 634 450 690 q 349 486 349 578 q 399 338 349 394 q 533 282 449 282 q 649 315 599 282 q 718 401 699 349 l 718 42 q 465 -24 606 -24 z "},"Ć":{"ha":764,"x_min":-4,"x_max":718,"o":"m 465 -24 q 224 40 331 -24 q 56 220 117 104 q -4 486 -4 336 q 56 752 -4 636 q 224 932 117 868 q 465 996 331 996 q 718 929 604 996 l 718 600 q 636 666 676 642 q 536 690 596 690 q 399 634 450 690 q 349 486 349 578 q 399 338 349 394 q 533 282 449 282 q 649 315 599 282 q 718 401 699 349 l 718 42 q 465 -24 606 -24 m 429 1278 l 718 1278 l 546 1019 l 311 1019 l 429 1278 z "},"Č":{"ha":764,"x_min":-4,"x_max":768,"o":"m 465 -24 q 224 40 331 -24 q 56 220 117 104 q -4 486 -4 336 q 56 752 -4 636 q 224 932 117 868 q 465 996 331 996 q 718 929 604 996 l 718 600 q 636 666 676 642 q 536 690 596 690 q 399 634 450 690 q 349 486 349 578 q 399 338 349 394 q 533 282 449 282 q 649 315 599 282 q 718 401 699 349 l 718 42 q 465 -24 606 -24 m 79 1278 l 318 1278 l 424 1129 l 529 1278 l 768 1278 l 576 1019 l 268 1019 l 79 1278 z "},"Ç":{"ha":764,"x_min":-4,"x_max":718,"o":"m 435 -22 l 411 -71 l 414 -71 q 514 -105 479 -71 q 549 -187 549 -139 q 491 -287 549 -250 q 335 -324 433 -324 q 238 -315 282 -324 l 238 -231 q 264 -232 242 -232 q 312 -222 293 -232 q 331 -197 331 -212 q 288 -174 331 -174 q 238 -181 265 -174 l 238 -126 l 321 -3 q 84 172 172 42 q -4 486 -4 303 q 56 752 -4 636 q 224 932 117 868 q 465 996 331 996 q 718 929 604 996 l 718 600 q 636 666 676 642 q 536 690 596 690 q 399 634 450 690 q 349 486 349 578 q 399 338 349 394 q 533 282 449 282 q 649 315 599 282 q 718 401 699 349 l 718 42 q 465 -24 606 -24 l 435 -22 z "},"D":{"ha":950,"x_min":53,"x_max":956,"o":"m 53 972 l 408 972 q 701 912 578 972 q 890 742 825 851 q 956 486 956 632 q 890 231 956 340 q 701 60 825 121 q 408 0 578 0 l 53 0 l 53 972 m 414 282 q 556 339 510 282 q 603 486 603 396 q 556 633 603 576 q 414 690 510 690 l 404 690 l 404 282 l 414 282 z "},"Ď":{"ha":950,"x_min":53,"x_max":956,"o":"m 53 972 l 408 972 q 701 912 578 972 q 890 742 825 851 q 956 486 956 632 q 890 231 956 340 q 701 60 825 121 q 408 0 578 0 l 53 0 l 53 972 m 414 282 q 556 339 510 282 q 603 486 603 396 q 556 633 603 576 q 414 690 510 690 l 404 690 l 404 282 l 414 282 m 131 1278 l 369 1278 l 475 1129 l 581 1278 l 819 1278 l 628 1019 l 319 1019 l 131 1278 z "},"Đ":{"ha":950,"x_min":-25,"x_max":956,"o":"m 53 428 l -25 428 l -25 546 l 53 546 l 53 972 l 408 972 q 701 912 578 972 q 890 742 825 851 q 956 486 956 632 q 890 231 956 340 q 701 60 825 121 q 408 0 578 0 l 53 0 l 53 428 m 414 282 q 556 339 510 282 q 603 486 603 396 q 556 633 603 576 q 414 690 510 690 l 404 690 l 404 546 l 493 546 l 493 428 l 404 428 l 404 282 l 414 282 z "},"Ð":{"ha":950,"x_min":-25,"x_max":956,"o":"m 53 428 l -25 428 l -25 546 l 53 546 l 53 972 l 408 972 q 701 912 578 972 q 890 742 825 851 q 956 486 956 632 q 890 231 956 340 q 701 60 825 121 q 408 0 578 0 l 53 0 l 53 428 m 414 282 q 556 339 510 282 q 603 486 603 396 q 556 633 603 576 q 414 690 510 690 l 404 690 l 404 546 l 493 546 l 493 428 l 404 428 l 404 282 l 414 282 z "},"E":{"ha":732,"x_min":53,"x_max":700,"o":"m 53 972 l 686 972 l 686 690 l 406 690 l 406 610 l 664 610 l 664 372 l 406 372 l 406 282 l 700 282 l 700 0 l 53 0 l 53 972 z "},"É":{"ha":732,"x_min":53,"x_max":700,"o":"m 53 972 l 686 972 l 686 690 l 406 690 l 406 610 l 664 610 l 664 372 l 406 372 l 406 282 l 700 282 l 700 0 l 53 0 l 53 972 m 372 1278 l 661 1278 l 489 1019 l 254 1019 l 372 1278 z "},"Ě":{"ha":732,"x_min":22,"x_max":711,"o":"m 53 972 l 686 972 l 686 690 l 406 690 l 406 610 l 664 610 l 664 372 l 406 372 l 406 282 l 700 282 l 700 0 l 53 0 l 53 972 m 22 1278 l 261 1278 l 367 1129 l 472 1278 l 711 1278 l 519 1019 l 211 1019 l 22 1278 z "},"Ê":{"ha":732,"x_min":22,"x_max":711,"o":"m 53 972 l 686 972 l 686 690 l 406 690 l 406 610 l 664 610 l 664 372 l 406 372 l 406 282 l 700 282 l 700 0 l 53 0 l 53 972 m 211 1278 l 519 1278 l 711 1019 l 472 1019 l 367 1168 l 261 1019 l 22 1019 l 211 1278 z "},"Ë":{"ha":732,"x_min":38,"x_max":700,"o":"m 53 972 l 686 972 l 686 690 l 406 690 l 406 610 l 664 610 l 664 372 l 406 372 l 406 282 l 700 282 l 700 0 l 53 0 l 53 972 m 192 1014 q 80 1051 122 1014 q 38 1147 38 1088 q 78 1247 38 1210 q 192 1283 119 1283 q 303 1246 261 1283 q 344 1147 344 1208 q 303 1051 344 1088 q 192 1014 261 1014 m 542 1014 q 430 1051 472 1014 q 388 1147 388 1088 q 430 1246 388 1208 q 542 1283 472 1283 q 653 1246 611 1283 q 696 1147 696 1208 q 653 1051 696 1088 q 542 1014 611 1014 z "},"Ė":{"ha":732,"x_min":53,"x_max":700,"o":"m 53 972 l 686 972 l 686 690 l 406 690 l 406 610 l 664 610 l 664 372 l 406 372 l 406 282 l 700 282 l 700 0 l 53 0 l 53 972 m 367 1014 q 255 1051 297 1014 q 213 1147 213 1088 q 255 1246 213 1208 q 367 1283 297 1283 q 478 1246 436 1283 q 521 1147 521 1208 q 478 1051 521 1088 q 367 1014 436 1014 z "},"È":{"ha":732,"x_min":53,"x_max":700,"o":"m 53 972 l 686 972 l 686 690 l 406 690 l 406 610 l 664 610 l 664 372 l 406 372 l 406 282 l 700 282 l 700 0 l 53 0 l 53 972 m 71 1278 l 360 1278 l 478 1019 l 243 1019 l 71 1278 z "},"Ē":{"ha":732,"x_min":53,"x_max":700,"o":"m 53 972 l 686 972 l 686 690 l 406 690 l 406 610 l 664 610 l 664 372 l 406 372 l 406 282 l 700 282 l 700 0 l 53 0 l 53 972 m 113 1239 l 619 1239 l 619 1046 l 113 1046 l 113 1239 z "},"Ę":{"ha":732,"x_min":53,"x_max":700,"o":"m 53 972 l 686 972 l 686 690 l 406 690 l 406 610 l 664 610 l 664 372 l 406 372 l 406 282 l 700 282 l 700 0 l 632 0 q 579 -52 599 -26 q 560 -111 560 -78 q 575 -156 560 -140 q 619 -172 590 -172 q 700 -144 660 -172 l 700 -274 q 558 -307 638 -307 q 424 -269 474 -307 q 374 -168 374 -232 q 401 -82 374 -125 q 482 0 429 -39 l 53 0 l 53 972 z "},"F":{"ha":696,"x_min":53,"x_max":686,"o":"m 53 972 l 686 972 l 686 690 l 406 690 l 406 578 l 664 578 l 664 340 l 406 340 l 406 0 l 53 0 l 53 972 z "},"G":{"ha":910,"x_min":-1,"x_max":914,"o":"m 914 568 l 914 378 q 803 82 914 186 q 492 -22 693 -22 q 225 40 336 -22 q 56 215 114 103 q -1 475 -1 326 q 63 747 -1 629 q 242 931 128 865 q 499 996 356 996 q 785 918 656 996 l 785 636 q 678 699 731 681 q 567 718 625 718 q 408 644 457 718 q 360 454 360 569 q 394 300 360 351 q 492 249 428 249 q 571 276 543 249 q 603 349 599 304 l 468 349 l 468 568 l 914 568 z "},"Ģ":{"ha":910,"x_min":-1,"x_max":914,"o":"m 914 568 l 914 378 q 803 82 914 186 q 492 -22 693 -22 q 225 40 336 -22 q 56 215 114 103 q -1 475 -1 326 q 63 747 -1 629 q 242 931 128 865 q 499 996 356 996 q 785 918 656 996 l 785 636 q 678 699 731 681 q 567 718 625 718 q 408 644 457 718 q 360 454 360 569 q 394 300 360 351 q 492 249 428 249 q 571 276 543 249 q 603 349 599 304 l 468 349 l 468 568 l 914 568 m 390 -282 q 319 -238 346 -268 q 292 -171 292 -208 q 338 -84 292 -119 q 450 -49 385 -49 q 563 -84 517 -49 q 610 -171 610 -119 q 574 -253 610 -207 l 451 -407 l 290 -407 l 390 -282 z "},"H":{"ha":1013,"x_min":53,"x_max":960,"o":"m 607 376 l 406 376 l 406 0 l 53 0 l 53 972 l 406 972 l 406 614 l 607 614 l 607 972 l 960 972 l 960 0 l 607 0 l 607 376 z "},"I":{"ha":461,"x_min":54,"x_max":407,"o":"m 54 972 l 407 972 l 407 0 l 54 0 l 54 972 z "},"Ĳ":{"ha":1047,"x_min":54,"x_max":1008,"o":"m 54 972 l 407 972 l 407 0 l 54 0 l 54 972 m 663 -24 q 450 36 519 -24 l 450 324 q 499 294 469 306 q 558 282 529 282 q 626 308 600 282 q 653 392 653 335 l 653 972 l 1008 972 l 1008 353 q 917 67 1008 158 q 663 -24 826 -24 z "},"Í":{"ha":461,"x_min":54,"x_max":525,"o":"m 54 972 l 407 972 l 407 0 l 54 0 l 54 972 m 236 1278 l 525 1278 l 353 1019 l 118 1019 l 236 1278 z "},"Î":{"ha":461,"x_min":-114,"x_max":575,"o":"m 54 972 l 407 972 l 407 0 l 54 0 l 54 972 m 75 1278 l 383 1278 l 575 1019 l 336 1019 l 231 1168 l 125 1019 l -114 1019 l 75 1278 z "},"Ï":{"ha":461,"x_min":-99,"x_max":560,"o":"m 54 972 l 407 972 l 407 0 l 54 0 l 54 972 m 56 1014 q -56 1051 -14 1014 q -99 1147 -99 1088 q -58 1247 -99 1210 q 56 1283 -17 1283 q 167 1246 125 1283 q 208 1147 208 1208 q 167 1051 208 1088 q 56 1014 125 1014 m 406 1014 q 294 1051 336 1014 q 251 1147 251 1088 q 294 1246 251 1208 q 406 1283 336 1283 q 517 1246 475 1283 q 560 1147 560 1208 q 517 1051 560 1088 q 406 1014 475 1014 z "},"Ì":{"ha":461,"x_min":-65,"x_max":407,"o":"m 54 972 l 407 972 l 407 0 l 54 0 l 54 972 m -65 1278 l 224 1278 l 342 1019 l 107 1019 l -65 1278 z "},"Ī":{"ha":461,"x_min":-24,"x_max":483,"o":"m 54 972 l 407 972 l 407 0 l 54 0 l 54 972 m -24 1239 l 483 1239 l 483 1046 l -24 1046 l -24 1239 z "},"Į":{"ha":461,"x_min":-56,"x_max":407,"o":"m 129 -307 q -6 -269 44 -307 q -56 -168 -56 -232 q 54 1 -56 -81 l 54 972 l 407 972 l 407 0 l 203 0 q 150 -52 169 -26 q 131 -111 131 -78 q 146 -156 131 -140 q 190 -172 161 -172 q 271 -144 231 -172 l 271 -274 q 129 -307 208 -307 z "},"J":{"ha":586,"x_min":-11,"x_max":547,"o":"m 201 -24 q -11 36 58 -24 l -11 324 q 38 294 8 306 q 97 282 68 282 q 165 308 139 282 q 192 392 192 335 l 192 972 l 547 972 l 547 353 q 456 67 547 158 q 201 -24 365 -24 z "},"K":{"ha":957,"x_min":53,"x_max":994,"o":"m 53 972 l 406 972 l 406 624 l 579 972 l 953 972 l 711 529 l 994 0 l 621 0 l 406 433 l 406 0 l 53 0 l 53 972 z "},"Ķ":{"ha":957,"x_min":53,"x_max":994,"o":"m 53 972 l 406 972 l 406 624 l 579 972 l 953 972 l 711 529 l 994 0 l 621 0 l 406 433 l 406 0 l 53 0 l 53 972 m 414 -282 q 342 -238 369 -268 q 315 -171 315 -208 q 362 -84 315 -119 q 474 -49 408 -49 q 587 -84 540 -49 q 633 -171 633 -119 q 597 -253 633 -207 l 475 -407 l 314 -407 l 414 -282 z "},"L":{"ha":661,"x_min":53,"x_max":678,"o":"m 53 972 l 406 972 l 406 282 l 678 282 l 678 0 l 53 0 l 53 972 z "},"Ĺ":{"ha":661,"x_min":53,"x_max":678,"o":"m 53 972 l 406 972 l 406 282 l 678 282 l 678 0 l 53 0 l 53 972 m 329 1278 l 618 1278 l 446 1019 l 211 1019 l 329 1278 z "},"Ľ":{"ha":661,"x_min":53,"x_max":811,"o":"m 53 972 l 406 972 l 406 282 l 678 282 l 678 0 l 53 0 l 53 972 m 535 1000 l 811 1000 l 668 742 l 446 742 l 535 1000 z "},"Ļ":{"ha":661,"x_min":53,"x_max":678,"o":"m 53 972 l 406 972 l 406 282 l 678 282 l 678 0 l 53 0 l 53 972 m 258 -282 q 187 -238 214 -268 q 160 -171 160 -208 q 206 -84 160 -119 q 318 -49 253 -49 q 431 -84 385 -49 q 478 -171 478 -119 q 442 -253 478 -207 l 319 -407 l 158 -407 l 258 -282 z "},"Ł":{"ha":661,"x_min":-42,"x_max":678,"o":"m 53 279 l -42 242 l -42 451 l 53 489 l 53 972 l 406 972 l 406 632 l 572 699 l 572 489 l 406 422 l 406 282 l 678 282 l 678 0 l 53 0 l 53 279 z "},"M":{"ha":1244,"x_min":53,"x_max":1192,"o":"m 53 972 l 511 972 l 622 432 l 733 972 l 1192 972 l 1192 0 l 854 0 l 854 589 l 728 0 l 517 0 l 389 596 l 389 0 l 53 0 l 53 972 z "},"N":{"ha":1000,"x_min":53,"x_max":947,"o":"m 53 972 l 415 972 l 606 544 l 606 972 l 947 972 l 947 0 l 588 0 l 394 433 l 394 0 l 53 0 l 53 972 z "},"Ń":{"ha":1000,"x_min":53,"x_max":947,"o":"m 53 972 l 415 972 l 606 544 l 606 972 l 947 972 l 947 0 l 588 0 l 394 433 l 394 0 l 53 0 l 53 972 m 506 1278 l 794 1278 l 622 1019 l 388 1019 l 506 1278 z "},"Ň":{"ha":1000,"x_min":53,"x_max":947,"o":"m 53 972 l 415 972 l 606 544 l 606 972 l 947 972 l 947 0 l 588 0 l 394 433 l 394 0 l 53 0 l 53 972 m 156 1278 l 394 1278 l 500 1129 l 606 1278 l 844 1278 l 653 1019 l 344 1019 l 156 1278 z "},"Ņ":{"ha":1000,"x_min":53,"x_max":947,"o":"m 53 972 l 415 972 l 606 544 l 606 972 l 947 972 l 947 0 l 588 0 l 394 433 l 394 0 l 53 0 l 53 972 m 435 -282 q 363 -238 390 -268 q 336 -171 336 -208 q 383 -84 336 -119 q 494 -49 429 -49 q 608 -84 561 -49 q 654 -171 654 -119 q 618 -253 654 -207 l 496 -407 l 335 -407 l 435 -282 z "},"Ñ":{"ha":1000,"x_min":53,"x_max":947,"o":"m 53 972 l 415 972 l 606 544 l 606 972 l 947 972 l 947 0 l 588 0 l 394 433 l 394 0 l 53 0 l 53 972 m 258 1185 q 381 1275 303 1275 q 454 1260 418 1275 l 571 1211 q 618 1201 596 1201 q 704 1279 676 1201 l 740 1117 q 619 1026 697 1026 q 544 1042 586 1026 l 426 1089 q 381 1099 403 1099 q 294 1022 321 1099 l 258 1185 z "},"O":{"ha":1015,"x_min":-3,"x_max":1018,"o":"m 507 -24 q 240 40 356 -24 q 61 219 125 103 q -3 486 -3 335 q 61 753 -3 638 q 240 932 125 868 q 507 996 356 996 q 774 932 658 996 q 954 753 890 868 q 1018 486 1018 638 q 954 219 1018 335 q 774 40 890 103 q 507 -24 658 -24 m 507 282 q 624 337 582 282 q 665 486 665 392 q 622 637 665 583 q 507 690 579 690 q 392 635 433 690 q 350 486 350 579 q 392 335 350 389 q 507 282 435 282 z "},"Ó":{"ha":1015,"x_min":-3,"x_max":1018,"o":"m 507 -24 q 240 40 356 -24 q 61 219 125 103 q -3 486 -3 335 q 61 753 -3 638 q 240 932 125 868 q 507 996 356 996 q 774 932 658 996 q 954 753 890 868 q 1018 486 1018 638 q 954 219 1018 335 q 774 40 890 103 q 507 -24 658 -24 m 507 282 q 624 337 582 282 q 665 486 665 392 q 622 637 665 583 q 507 690 579 690 q 392 635 433 690 q 350 486 350 579 q 392 335 350 389 q 507 282 435 282 m 514 1278 l 803 1278 l 631 1019 l 396 1019 l 514 1278 z "},"Ô":{"ha":1015,"x_min":-3,"x_max":1018,"o":"m 507 -24 q 240 40 356 -24 q 61 219 125 103 q -3 486 -3 335 q 61 753 -3 638 q 240 932 125 868 q 507 996 356 996 q 774 932 658 996 q 954 753 890 868 q 1018 486 1018 638 q 954 219 1018 335 q 774 40 890 103 q 507 -24 658 -24 m 507 282 q 624 337 582 282 q 665 486 665 392 q 622 637 665 583 q 507 690 579 690 q 392 635 433 690 q 350 486 350 579 q 392 335 350 389 q 507 282 435 282 m 353 1278 l 661 1278 l 853 1019 l 614 1019 l 508 1168 l 403 1019 l 164 1019 l 353 1278 z "},"Ö":{"ha":1015,"x_min":-3,"x_max":1018,"o":"m 507 -24 q 240 40 356 -24 q 61 219 125 103 q -3 486 -3 335 q 61 753 -3 638 q 240 932 125 868 q 507 996 356 996 q 774 932 658 996 q 954 753 890 868 q 1018 486 1018 638 q 954 219 1018 335 q 774 40 890 103 q 507 -24 658 -24 m 507 282 q 624 337 582 282 q 665 486 665 392 q 622 637 665 583 q 507 690 579 690 q 392 635 433 690 q 350 486 350 579 q 392 335 350 389 q 507 282 435 282 m 333 1014 q 222 1051 264 1014 q 179 1147 179 1088 q 220 1247 179 1210 q 333 1283 261 1283 q 444 1246 403 1283 q 486 1147 486 1208 q 444 1051 486 1088 q 333 1014 403 1014 m 683 1014 q 572 1051 614 1014 q 529 1147 529 1088 q 572 1246 529 1208 q 683 1283 614 1283 q 795 1246 753 1283 q 838 1147 838 1208 q 795 1051 838 1088 q 683 1014 753 1014 z "},"Ò":{"ha":1015,"x_min":-3,"x_max":1018,"o":"m 507 -24 q 240 40 356 -24 q 61 219 125 103 q -3 486 -3 335 q 61 753 -3 638 q 240 932 125 868 q 507 996 356 996 q 774 932 658 996 q 954 753 890 868 q 1018 486 1018 638 q 954 219 1018 335 q 774 40 890 103 q 507 -24 658 -24 m 507 282 q 624 337 582 282 q 665 486 665 392 q 622 637 665 583 q 507 690 579 690 q 392 635 433 690 q 350 486 350 579 q 392 335 350 389 q 507 282 435 282 m 213 1278 l 501 1278 l 619 1019 l 385 1019 l 213 1278 z "},"Ő":{"ha":1015,"x_min":-3,"x_max":1018,"o":"m 507 -24 q 240 40 356 -24 q 61 219 125 103 q -3 486 -3 335 q 61 753 -3 638 q 240 932 125 868 q 507 996 356 996 q 774 932 658 996 q 954 753 890 868 q 1018 486 1018 638 q 954 219 1018 335 q 774 40 890 103 q 507 -24 658 -24 m 507 282 q 624 337 582 282 q 665 486 665 392 q 622 637 665 583 q 507 690 579 690 q 392 635 433 690 q 350 486 350 579 q 392 335 350 389 q 507 282 435 282 m 317 1278 l 606 1278 l 453 1019 l 218 1019 l 317 1278 m 671 1278 l 960 1278 l 807 1019 l 572 1019 l 671 1278 z "},"Ō":{"ha":1015,"x_min":-3,"x_max":1018,"o":"m 507 -24 q 240 40 356 -24 q 61 219 125 103 q -3 486 -3 335 q 61 753 -3 638 q 240 932 125 868 q 507 996 356 996 q 774 932 658 996 q 954 753 890 868 q 1018 486 1018 638 q 954 219 1018 335 q 774 40 890 103 q 507 -24 658 -24 m 507 282 q 624 337 582 282 q 665 486 665 392 q 622 637 665 583 q 507 690 579 690 q 392 635 433 690 q 350 486 350 579 q 392 335 350 389 q 507 282 435 282 m 254 1239 l 761 1239 l 761 1046 l 254 1046 l 254 1239 z "},"Ø":{"ha":1015,"x_min":-3,"x_max":1018,"o":"m 507 -24 q 249 35 363 -24 l 169 -69 l 6 -69 l 143 111 q 35 274 72 179 q -3 486 -3 369 q 61 753 -3 638 q 240 932 125 868 q 507 996 356 996 q 769 935 654 996 l 851 1042 l 1015 1042 l 875 858 q 981 695 944 790 q 1018 486 1018 600 q 954 219 1018 335 q 774 40 890 103 q 507 -24 658 -24 m 507 282 q 624 337 582 282 q 665 486 665 392 q 656 568 665 535 l 446 294 q 507 282 474 282 m 350 486 q 361 399 350 439 l 574 676 q 507 690 546 690 q 392 635 433 690 q 350 486 350 579 z "},"Õ":{"ha":1015,"x_min":-3,"x_max":1018,"o":"m 507 -24 q 240 40 356 -24 q 61 219 125 103 q -3 486 -3 335 q 61 753 -3 638 q 240 932 125 868 q 507 996 356 996 q 774 932 658 996 q 954 753 890 868 q 1018 486 1018 638 q 954 219 1018 335 q 774 40 890 103 q 507 -24 658 -24 m 507 282 q 624 337 582 282 q 665 486 665 392 q 622 637 665 583 q 507 690 579 690 q 392 635 433 690 q 350 486 350 579 q 392 335 350 389 q 507 282 435 282 m 267 1185 q 389 1275 311 1275 q 463 1260 426 1275 l 579 1211 q 626 1201 604 1201 q 713 1279 685 1201 l 749 1117 q 628 1026 706 1026 q 553 1042 594 1026 l 435 1089 q 389 1099 411 1099 q 303 1022 329 1099 l 267 1185 z "},"Œ":{"ha":1339,"x_min":-1,"x_max":1306,"o":"m 508 -24 q 242 40 357 -24 q 63 219 126 103 q -1 486 -1 335 q 63 753 -1 638 q 242 932 126 868 q 508 996 357 996 q 675 972 597 996 l 1292 972 l 1292 690 l 1014 690 l 1014 610 l 1269 610 l 1269 372 l 1014 372 l 1014 282 l 1306 282 l 1306 0 l 676 0 q 508 -24 599 -24 m 508 310 q 619 357 579 310 q 658 486 658 404 q 617 616 658 569 q 508 663 576 663 q 399 615 439 663 q 360 486 360 567 q 400 356 360 403 q 508 310 440 310 z "},"P":{"ha":869,"x_min":53,"x_max":882,"o":"m 53 972 l 478 972 q 882 644 882 972 q 774 393 882 476 q 478 310 667 310 l 397 310 l 397 0 l 53 0 l 53 972 m 433 540 q 508 567 485 540 q 532 636 532 593 q 432 725 532 725 l 397 725 l 397 540 l 433 540 z "},"Þ":{"ha":869,"x_min":53,"x_max":882,"o":"m 53 972 l 397 972 l 397 856 l 478 856 q 882 528 882 856 q 774 272 882 358 q 478 186 667 186 l 397 186 l 397 0 l 53 0 l 53 972 m 433 432 q 532 519 532 432 q 507 582 532 564 q 432 600 482 600 l 397 600 l 397 432 l 433 432 z "},"Q":{"ha":1014,"x_min":-3,"x_max":1018,"o":"m 540 -22 l 507 -24 q 240 40 356 -24 q 61 219 125 103 q -3 486 -3 335 q 61 753 -3 638 q 240 932 125 868 q 507 996 356 996 q 774 932 658 996 q 954 753 890 868 q 1018 486 1018 638 q 967 267 1018 375 q 833 90 917 158 l 942 -3 l 692 -154 l 540 -22 m 507 282 q 624 337 582 282 q 665 486 665 392 q 622 637 665 583 q 507 690 579 690 q 392 635 433 690 q 350 486 350 579 q 392 335 350 389 q 507 282 435 282 z "},"R":{"ha":888,"x_min":53,"x_max":917,"o":"m 53 972 l 468 972 q 656 954 568 972 q 815 866 744 936 q 885 656 885 796 q 849 505 885 563 q 738 417 813 447 l 917 0 l 557 0 l 436 336 l 406 336 l 406 0 l 53 0 l 53 972 m 442 565 q 532 650 532 565 q 509 710 532 693 q 440 728 486 728 l 406 728 l 406 565 l 442 565 z "},"Ŕ":{"ha":888,"x_min":53,"x_max":917,"o":"m 53 972 l 468 972 q 656 954 568 972 q 815 866 744 936 q 885 656 885 796 q 849 505 885 563 q 738 417 813 447 l 917 0 l 557 0 l 436 336 l 406 336 l 406 0 l 53 0 l 53 972 m 442 565 q 532 650 532 565 q 509 710 532 693 q 440 728 486 728 l 406 728 l 406 565 l 442 565 m 450 1278 l 739 1278 l 567 1019 l 332 1019 l 450 1278 z "},"Ř":{"ha":888,"x_min":53,"x_max":917,"o":"m 53 972 l 468 972 q 656 954 568 972 q 815 866 744 936 q 885 656 885 796 q 849 505 885 563 q 738 417 813 447 l 917 0 l 557 0 l 436 336 l 406 336 l 406 0 l 53 0 l 53 972 m 442 565 q 532 650 532 565 q 509 710 532 693 q 440 728 486 728 l 406 728 l 406 565 l 442 565 m 100 1278 l 339 1278 l 444 1129 l 550 1278 l 789 1278 l 597 1019 l 289 1019 l 100 1278 z "},"Ŗ":{"ha":888,"x_min":53,"x_max":917,"o":"m 53 972 l 468 972 q 656 954 568 972 q 815 866 744 936 q 885 656 885 796 q 849 505 885 563 q 738 417 813 447 l 917 0 l 557 0 l 436 336 l 406 336 l 406 0 l 53 0 l 53 972 m 442 565 q 532 650 532 565 q 509 710 532 693 q 440 728 486 728 l 406 728 l 406 565 l 442 565 m 379 -282 q 308 -238 335 -268 q 281 -171 281 -208 q 327 -84 281 -119 q 439 -49 374 -49 q 552 -84 506 -49 q 599 -171 599 -119 q 563 -253 599 -207 l 440 -407 l 279 -407 l 379 -282 z "},"S":{"ha":767,"x_min":19,"x_max":757,"o":"m 333 -24 q 177 -2 258 -24 q 36 79 96 19 l 36 381 q 164 285 86 329 q 325 242 242 242 q 385 253 367 242 q 403 285 403 265 q 378 320 403 307 q 300 350 354 333 q 163 405 219 375 q 63 498 106 435 q 19 667 19 561 q 78 859 19 785 q 225 965 136 933 q 414 996 314 996 q 722 893 596 996 l 722 626 q 453 722 586 722 q 372 685 372 722 q 399 652 372 664 q 481 628 425 640 q 691 533 625 596 q 757 344 757 471 q 701 144 757 226 q 548 19 644 61 q 333 -24 451 -24 z "},"Ś":{"ha":767,"x_min":19,"x_max":757,"o":"m 333 -24 q 177 -2 258 -24 q 36 79 96 19 l 36 381 q 164 285 86 329 q 325 242 242 242 q 385 253 367 242 q 403 285 403 265 q 378 320 403 307 q 300 350 354 333 q 163 405 219 375 q 63 498 106 435 q 19 667 19 561 q 78 859 19 785 q 225 965 136 933 q 414 996 314 996 q 722 893 596 996 l 722 626 q 453 722 586 722 q 372 685 372 722 q 399 652 372 664 q 481 628 425 640 q 691 533 625 596 q 757 344 757 471 q 701 144 757 226 q 548 19 644 61 q 333 -24 451 -24 m 389 1278 l 678 1278 l 506 1019 l 271 1019 l 389 1278 z "},"Š":{"ha":767,"x_min":19,"x_max":757,"o":"m 333 -24 q 177 -2 258 -24 q 36 79 96 19 l 36 381 q 164 285 86 329 q 325 242 242 242 q 385 253 367 242 q 403 285 403 265 q 378 320 403 307 q 300 350 354 333 q 163 405 219 375 q 63 498 106 435 q 19 667 19 561 q 78 859 19 785 q 225 965 136 933 q 414 996 314 996 q 722 893 596 996 l 722 626 q 453 722 586 722 q 372 685 372 722 q 399 652 372 664 q 481 628 425 640 q 691 533 625 596 q 757 344 757 471 q 701 144 757 226 q 548 19 644 61 q 333 -24 451 -24 m 39 1278 l 278 1278 l 383 1129 l 489 1278 l 728 1278 l 536 1019 l 228 1019 l 39 1278 z "},"Ş":{"ha":767,"x_min":19,"x_max":757,"o":"m 294 -324 q 197 -315 242 -324 l 197 -231 q 224 -232 201 -232 q 272 -222 253 -232 q 290 -197 290 -212 q 247 -174 290 -174 q 197 -181 225 -174 l 197 -126 l 269 -21 q 36 79 118 -3 l 36 381 q 164 285 86 329 q 325 242 242 242 q 385 253 367 242 q 403 285 403 265 q 378 320 403 307 q 300 350 354 333 q 163 405 219 375 q 63 498 106 435 q 19 667 19 561 q 78 859 19 785 q 225 965 136 933 q 414 996 314 996 q 722 893 596 996 l 722 626 q 453 722 586 722 q 372 685 372 722 q 399 652 372 664 q 481 628 425 640 q 691 533 625 596 q 757 344 757 471 q 656 90 757 185 q 396 -21 556 -4 l 371 -71 l 374 -71 q 474 -105 439 -71 q 508 -187 508 -139 q 451 -287 508 -250 q 294 -324 393 -324 z "},"ẞ":{"ha":1031,"x_min":35,"x_max":1046,"o":"m 35 593 q 94 831 35 744 q 261 951 154 917 q 526 985 368 985 q 790 978 686 985 q 954 951 893 971 l 954 757 l 774 540 l 833 524 q 997 427 949 492 q 1046 264 1046 363 q 1001 103 1046 161 q 872 23 956 46 q 658 0 788 0 l 471 0 l 471 249 l 603 249 q 674 267 654 249 q 693 319 693 285 q 673 374 693 358 q 613 389 653 389 l 471 389 l 471 544 l 621 739 l 546 739 q 424 700 457 739 q 390 586 390 661 l 390 0 l 35 0 l 35 593 z "},"T":{"ha":683,"x_min":-17,"x_max":700,"o":"m 165 690 l -17 690 l -17 972 l 700 972 l 700 690 l 518 690 l 518 0 l 165 0 l 165 690 z "},"Ť":{"ha":683,"x_min":-17,"x_max":700,"o":"m 165 690 l -17 690 l -17 972 l 700 972 l 700 690 l 518 690 l 518 0 l 165 0 l 165 690 m -3 1278 l 236 1278 l 342 1129 l 447 1278 l 686 1278 l 494 1019 l 186 1019 l -3 1278 z "},"Ţ":{"ha":683,"x_min":-17,"x_max":700,"o":"m 165 690 l -17 690 l -17 972 l 700 972 l 700 690 l 518 690 l 518 0 l 364 0 l 329 -71 l 332 -71 q 432 -105 397 -71 q 467 -187 467 -139 q 409 -287 467 -250 q 253 -324 351 -324 q 156 -315 200 -324 l 156 -231 q 182 -232 160 -232 q 230 -222 211 -232 q 249 -197 249 -212 q 206 -174 249 -174 q 156 -181 183 -174 l 156 -126 l 242 0 l 165 0 l 165 690 z "},"U":{"ha":878,"x_min":38,"x_max":840,"o":"m 439 -24 q 138 81 239 -24 q 38 369 38 186 l 38 972 l 361 972 l 361 364 q 382 303 361 324 q 439 282 403 282 q 497 304 478 282 q 517 364 517 326 l 517 972 l 840 972 l 840 369 q 733 76 840 175 q 439 -24 625 -24 z "},"Ú":{"ha":878,"x_min":38,"x_max":840,"o":"m 439 -24 q 138 81 239 -24 q 38 369 38 186 l 38 972 l 361 972 l 361 364 q 382 303 361 324 q 439 282 403 282 q 497 304 478 282 q 517 364 517 326 l 517 972 l 840 972 l 840 369 q 733 76 840 175 q 439 -24 625 -24 m 444 1278 l 733 1278 l 561 1019 l 326 1019 l 444 1278 z "},"Û":{"ha":878,"x_min":38,"x_max":840,"o":"m 439 -24 q 138 81 239 -24 q 38 369 38 186 l 38 972 l 361 972 l 361 364 q 382 303 361 324 q 439 282 403 282 q 497 304 478 282 q 517 364 517 326 l 517 972 l 840 972 l 840 369 q 733 76 840 175 q 439 -24 625 -24 m 283 1278 l 592 1278 l 783 1019 l 544 1019 l 439 1168 l 333 1019 l 94 1019 l 283 1278 z "},"Ü":{"ha":878,"x_min":38,"x_max":840,"o":"m 439 -24 q 138 81 239 -24 q 38 369 38 186 l 38 972 l 361 972 l 361 364 q 382 303 361 324 q 439 282 403 282 q 497 304 478 282 q 517 364 517 326 l 517 972 l 840 972 l 840 369 q 733 76 840 175 q 439 -24 625 -24 m 264 1014 q 152 1051 194 1014 q 110 1147 110 1088 q 151 1247 110 1210 q 264 1283 192 1283 q 375 1246 333 1283 q 417 1147 417 1208 q 375 1051 417 1088 q 264 1014 333 1014 m 614 1014 q 502 1051 544 1014 q 460 1147 460 1088 q 502 1246 460 1208 q 614 1283 544 1283 q 726 1246 683 1283 q 768 1147 768 1208 q 726 1051 768 1088 q 614 1014 683 1014 z "},"Ù":{"ha":878,"x_min":38,"x_max":840,"o":"m 439 -24 q 138 81 239 -24 q 38 369 38 186 l 38 972 l 361 972 l 361 364 q 382 303 361 324 q 439 282 403 282 q 497 304 478 282 q 517 364 517 326 l 517 972 l 840 972 l 840 369 q 733 76 840 175 q 439 -24 625 -24 m 143 1278 l 432 1278 l 550 1019 l 315 1019 l 143 1278 z "},"Ű":{"ha":878,"x_min":38,"x_max":890,"o":"m 439 -24 q 138 81 239 -24 q 38 369 38 186 l 38 972 l 361 972 l 361 364 q 382 303 361 324 q 439 282 403 282 q 497 304 478 282 q 517 364 517 326 l 517 972 l 840 972 l 840 369 q 733 76 840 175 q 439 -24 625 -24 m 247 1278 l 536 1278 l 383 1019 l 149 1019 l 247 1278 m 601 1278 l 890 1278 l 738 1019 l 503 1019 l 601 1278 z "},"Ū":{"ha":878,"x_min":38,"x_max":840,"o":"m 439 -24 q 138 81 239 -24 q 38 369 38 186 l 38 972 l 361 972 l 361 364 q 382 303 361 324 q 439 282 403 282 q 497 304 478 282 q 517 364 517 326 l 517 972 l 840 972 l 840 369 q 733 76 840 175 q 439 -24 625 -24 m 185 1239 l 692 1239 l 692 1046 l 185 1046 l 185 1239 z "},"Ų":{"ha":878,"x_min":38,"x_max":840,"o":"m 439 -24 q 138 81 239 -24 q 38 369 38 186 l 38 972 l 361 972 l 361 364 q 382 303 361 324 q 439 282 403 282 q 497 304 478 282 q 517 364 517 326 l 517 972 l 840 972 l 840 369 q 787 144 840 233 q 635 13 733 54 q 569 -49 590 -24 q 547 -111 547 -74 q 563 -156 547 -140 q 607 -172 578 -172 q 688 -144 647 -172 l 688 -274 q 546 -307 625 -307 q 411 -269 461 -307 q 361 -168 361 -232 q 439 -24 361 -94 z "},"Ů":{"ha":878,"x_min":38,"x_max":840,"o":"m 439 -24 q 138 81 239 -24 q 38 369 38 186 l 38 972 l 361 972 l 361 364 q 382 303 361 324 q 439 282 403 282 q 497 304 478 282 q 517 364 517 326 l 517 972 l 840 972 l 840 369 q 733 76 840 175 q 439 -24 625 -24 m 439 994 q 348 1019 390 994 q 281 1085 306 1043 q 256 1176 256 1128 q 281 1267 256 1225 q 348 1334 306 1310 q 439 1358 390 1358 q 531 1334 489 1358 q 598 1268 574 1310 q 622 1176 622 1226 q 598 1085 622 1126 q 531 1019 574 1043 q 439 994 489 994 m 439 1139 q 465 1151 454 1139 q 476 1176 476 1163 q 465 1203 476 1192 q 439 1214 454 1214 q 413 1203 425 1214 q 401 1176 401 1192 q 413 1151 401 1163 q 439 1139 425 1139 z "},"V":{"ha":881,"x_min":-31,"x_max":911,"o":"m -31 972 l 325 972 l 440 343 l 556 972 l 911 972 l 649 0 l 232 0 l -31 972 z "},"W":{"ha":1319,"x_min":-26,"x_max":1346,"o":"m -26 972 l 329 972 l 425 388 l 526 972 l 793 972 l 894 388 l 990 972 l 1346 972 l 1126 0 l 746 0 l 660 443 l 574 0 l 193 0 l -26 972 z "},"Ẃ":{"ha":1319,"x_min":-26,"x_max":1346,"o":"m -26 972 l 329 972 l 425 388 l 526 972 l 793 972 l 894 388 l 990 972 l 1346 972 l 1126 0 l 746 0 l 660 443 l 574 0 l 193 0 l -26 972 m 665 1278 l 954 1278 l 782 1019 l 547 1019 l 665 1278 z "},"Ŵ":{"ha":1319,"x_min":-26,"x_max":1346,"o":"m -26 972 l 329 972 l 425 388 l 526 972 l 793 972 l 894 388 l 990 972 l 1346 972 l 1126 0 l 746 0 l 660 443 l 574 0 l 193 0 l -26 972 m 504 1278 l 813 1278 l 1004 1019 l 765 1019 l 660 1168 l 554 1019 l 315 1019 l 504 1278 z "},"Ẅ":{"ha":1319,"x_min":-26,"x_max":1346,"o":"m -26 972 l 329 972 l 425 388 l 526 972 l 793 972 l 894 388 l 990 972 l 1346 972 l 1126 0 l 746 0 l 660 443 l 574 0 l 193 0 l -26 972 m 485 1014 q 373 1051 415 1014 q 331 1147 331 1088 q 372 1247 331 1210 q 485 1283 413 1283 q 596 1246 554 1283 q 638 1147 638 1208 q 596 1051 638 1088 q 485 1014 554 1014 m 835 1014 q 723 1051 765 1014 q 681 1147 681 1088 q 723 1246 681 1208 q 835 1283 765 1283 q 947 1246 904 1283 q 989 1147 989 1208 q 947 1051 989 1088 q 835 1014 904 1014 z "},"Ẁ":{"ha":1319,"x_min":-26,"x_max":1346,"o":"m -26 972 l 329 972 l 425 388 l 526 972 l 793 972 l 894 388 l 990 972 l 1346 972 l 1126 0 l 746 0 l 660 443 l 574 0 l 193 0 l -26 972 m 364 1278 l 653 1278 l 771 1019 l 536 1019 l 364 1278 z "},"X":{"ha":885,"x_min":-33,"x_max":918,"o":"m 257 486 l -33 972 l 329 972 l 442 754 l 556 972 l 918 972 l 626 486 l 918 0 l 556 0 l 442 218 l 329 0 l -33 0 l 257 486 z "},"Y":{"ha":914,"x_min":-42,"x_max":956,"o":"m 281 394 l -42 974 l 314 974 l 457 654 l 600 974 l 956 974 l 633 394 l 633 0 l 281 0 l 281 394 z "},"Ý":{"ha":914,"x_min":-42,"x_max":956,"o":"m 281 394 l -42 974 l 314 974 l 457 654 l 600 974 l 956 974 l 633 394 l 633 0 l 281 0 l 281 394 m 463 1278 l 751 1278 l 579 1019 l 344 1019 l 463 1278 z "},"Ŷ":{"ha":914,"x_min":-42,"x_max":956,"o":"m 281 394 l -42 974 l 314 974 l 457 654 l 600 974 l 956 974 l 633 394 l 633 0 l 281 0 l 281 394 m 301 1278 l 610 1278 l 801 1019 l 563 1019 l 457 1168 l 351 1019 l 113 1019 l 301 1278 z "},"Ÿ":{"ha":914,"x_min":-42,"x_max":956,"o":"m 281 394 l -42 974 l 314 974 l 457 654 l 600 974 l 956 974 l 633 394 l 633 0 l 281 0 l 281 394 m 282 1014 q 170 1051 213 1014 q 128 1147 128 1088 q 169 1247 128 1210 q 282 1283 210 1283 q 393 1246 351 1283 q 435 1147 435 1208 q 393 1051 435 1088 q 282 1014 351 1014 m 632 1014 q 520 1051 563 1014 q 478 1147 478 1088 q 520 1246 478 1208 q 632 1283 563 1283 q 744 1246 701 1283 q 786 1147 786 1208 q 744 1051 786 1088 q 632 1014 701 1014 z "},"Ỳ":{"ha":914,"x_min":-42,"x_max":956,"o":"m 281 394 l -42 974 l 314 974 l 457 654 l 600 974 l 956 974 l 633 394 l 633 0 l 281 0 l 281 394 m 161 1278 l 450 1278 l 568 1019 l 333 1019 l 161 1278 z "},"Z":{"ha":772,"x_min":-22,"x_max":778,"o":"m 276 690 l 31 690 l 31 972 l 765 972 l 465 282 l 778 282 l 778 0 l -22 0 l 276 690 z "},"Ź":{"ha":772,"x_min":-22,"x_max":778,"o":"m 276 690 l 31 690 l 31 972 l 765 972 l 465 282 l 778 282 l 778 0 l -22 0 l 276 690 m 392 1278 l 681 1278 l 508 1019 l 274 1019 l 392 1278 z "},"Ž":{"ha":772,"x_min":-22,"x_max":778,"o":"m 276 690 l 31 690 l 31 972 l 765 972 l 465 282 l 778 282 l 778 0 l -22 0 l 276 690 m 42 1278 l 281 1278 l 386 1129 l 492 1278 l 731 1278 l 539 1019 l 231 1019 l 42 1278 z "},"Ż":{"ha":772,"x_min":-22,"x_max":778,"o":"m 276 690 l 31 690 l 31 972 l 765 972 l 465 282 l 778 282 l 778 0 l -22 0 l 276 690 m 386 1014 q 274 1051 317 1014 q 232 1147 232 1088 q 274 1246 232 1208 q 386 1283 317 1283 q 498 1246 456 1283 q 540 1147 540 1208 q 498 1051 540 1088 q 386 1014 456 1014 z "},"a":{"ha":754,"x_min":4,"x_max":713,"o":"m 264 -15 q 128 28 188 -15 q 37 151 69 72 q 4 335 4 231 q 37 519 4 439 q 128 642 69 599 q 264 686 188 686 q 421 621 356 686 l 421 671 l 713 671 l 713 0 l 438 0 l 438 69 q 264 -15 371 -15 m 346 242 q 401 267 382 242 q 421 335 421 292 q 401 404 421 379 q 346 429 381 429 q 292 403 311 429 q 272 335 272 378 q 292 266 272 290 q 346 242 313 242 z "},"á":{"ha":754,"x_min":4,"x_max":713,"o":"m 264 -15 q 128 28 188 -15 q 37 151 69 72 q 4 335 4 231 q 37 519 4 439 q 128 642 69 599 q 264 686 188 686 q 421 621 356 686 l 421 671 l 713 671 l 713 0 l 438 0 l 438 69 q 264 -15 371 -15 m 346 242 q 401 267 382 242 q 421 335 421 292 q 401 404 421 379 q 346 429 381 429 q 292 403 311 429 q 272 335 272 378 q 292 266 272 290 q 346 242 313 242 m 383 1000 l 672 1000 l 500 742 l 265 742 l 383 1000 z "},"ă":{"ha":754,"x_min":4,"x_max":713,"o":"m 264 -15 q 128 28 188 -15 q 37 151 69 72 q 4 335 4 231 q 37 519 4 439 q 128 642 69 599 q 264 686 188 686 q 421 621 356 686 l 421 671 l 713 671 l 713 0 l 438 0 l 438 69 q 264 -15 371 -15 m 346 242 q 401 267 382 242 q 421 335 421 292 q 401 404 421 379 q 346 429 381 429 q 292 403 311 429 q 272 335 272 378 q 292 266 272 290 q 346 242 313 242 m 376 726 q 177 801 254 726 q 97 1000 100 876 l 269 1000 q 302 928 272 956 q 376 901 332 901 q 453 928 424 901 q 486 1000 483 956 l 658 1000 q 579 801 656 876 q 376 726 503 726 z "},"â":{"ha":754,"x_min":4,"x_max":722,"o":"m 264 -15 q 128 28 188 -15 q 37 151 69 72 q 4 335 4 231 q 37 519 4 439 q 128 642 69 599 q 264 686 188 686 q 421 621 356 686 l 421 671 l 713 671 l 713 0 l 438 0 l 438 69 q 264 -15 371 -15 m 346 242 q 401 267 382 242 q 421 335 421 292 q 401 404 421 379 q 346 429 381 429 q 292 403 311 429 q 272 335 272 378 q 292 266 272 290 q 346 242 313 242 m 222 1000 l 531 1000 l 722 742 l 483 742 l 378 890 l 272 742 l 33 742 l 222 1000 z "},"ä":{"ha":754,"x_min":4,"x_max":713,"o":"m 264 -15 q 128 28 188 -15 q 37 151 69 72 q 4 335 4 231 q 37 519 4 439 q 128 642 69 599 q 264 686 188 686 q 421 621 356 686 l 421 671 l 713 671 l 713 0 l 438 0 l 438 69 q 264 -15 371 -15 m 346 242 q 401 267 382 242 q 421 335 421 292 q 401 404 421 379 q 346 429 381 429 q 292 403 311 429 q 272 335 272 378 q 292 266 272 290 q 346 242 313 242 m 203 736 q 91 773 133 736 q 49 869 49 810 q 90 969 49 932 q 203 1006 131 1006 q 314 968 272 1006 q 356 869 356 931 q 314 773 356 810 q 203 736 272 736 m 553 736 q 441 773 483 736 q 399 869 399 810 q 441 968 399 931 q 553 1006 483 1006 q 665 968 622 1006 q 707 869 707 931 q 665 773 707 810 q 553 736 622 736 z "},"à":{"ha":754,"x_min":4,"x_max":713,"o":"m 264 -15 q 128 28 188 -15 q 37 151 69 72 q 4 335 4 231 q 37 519 4 439 q 128 642 69 599 q 264 686 188 686 q 421 621 356 686 l 421 671 l 713 671 l 713 0 l 438 0 l 438 69 q 264 -15 371 -15 m 346 242 q 401 267 382 242 q 421 335 421 292 q 401 404 421 379 q 346 429 381 429 q 292 403 311 429 q 272 335 272 378 q 292 266 272 290 q 346 242 313 242 m 82 1000 l 371 1000 l 489 742 l 254 742 l 82 1000 z "},"ā":{"ha":754,"x_min":4,"x_max":713,"o":"m 264 -15 q 128 28 188 -15 q 37 151 69 72 q 4 335 4 231 q 37 519 4 439 q 128 642 69 599 q 264 686 188 686 q 421 621 356 686 l 421 671 l 713 671 l 713 0 l 438 0 l 438 69 q 264 -15 371 -15 m 346 242 q 401 267 382 242 q 421 335 421 292 q 401 404 421 379 q 346 429 381 429 q 292 403 311 429 q 272 335 272 378 q 292 266 272 290 q 346 242 313 242 m 124 961 l 631 961 l 631 768 l 124 768 l 124 961 z "},"ą":{"ha":754,"x_min":4,"x_max":713,"o":"m 264 -15 q 128 28 188 -15 q 37 151 69 72 q 4 335 4 231 q 37 519 4 439 q 128 642 69 599 q 264 686 188 686 q 421 621 356 686 l 421 671 l 713 671 l 713 0 l 585 0 q 532 -52 551 -26 q 513 -111 513 -78 q 528 -156 513 -140 q 572 -172 543 -172 q 653 -144 613 -172 l 653 -274 q 511 -307 590 -307 q 376 -269 426 -307 q 326 -168 326 -232 q 438 3 326 -81 l 438 69 q 264 -15 371 -15 m 346 242 q 401 267 382 242 q 421 335 421 292 q 401 404 421 379 q 346 429 381 429 q 292 403 311 429 q 272 335 272 378 q 292 266 272 290 q 346 242 313 242 z "},"å":{"ha":754,"x_min":4,"x_max":713,"o":"m 264 -15 q 128 28 188 -15 q 37 151 69 72 q 4 335 4 231 q 37 519 4 439 q 128 642 69 599 q 264 686 188 686 q 421 621 356 686 l 421 671 l 713 671 l 713 0 l 438 0 l 438 69 q 264 -15 371 -15 m 346 242 q 401 267 382 242 q 421 335 421 292 q 401 404 421 379 q 346 429 381 429 q 292 403 311 429 q 272 335 272 378 q 292 266 272 290 q 346 242 313 242 m 378 717 q 287 741 329 717 q 219 808 244 765 q 194 899 194 850 q 219 990 194 947 q 287 1056 244 1032 q 378 1081 329 1081 q 470 1056 428 1081 q 537 990 513 1032 q 561 899 561 949 q 537 807 561 849 q 470 741 513 765 q 378 717 428 717 m 378 861 q 404 873 393 861 q 415 899 415 885 q 404 925 415 914 q 378 936 393 936 q 352 925 364 936 q 340 899 340 914 q 352 873 340 885 q 378 861 364 861 z "},"ã":{"ha":754,"x_min":4,"x_max":713,"o":"m 264 -15 q 128 28 188 -15 q 37 151 69 72 q 4 335 4 231 q 37 519 4 439 q 128 642 69 599 q 264 686 188 686 q 421 621 356 686 l 421 671 l 713 671 l 713 0 l 438 0 l 438 69 q 264 -15 371 -15 m 346 242 q 401 267 382 242 q 421 335 421 292 q 401 404 421 379 q 346 429 381 429 q 292 403 311 429 q 272 335 272 378 q 292 266 272 290 q 346 242 313 242 m 136 907 q 258 997 181 997 q 332 982 296 997 l 449 933 q 496 924 474 924 q 582 1001 554 924 l 618 839 q 497 749 575 749 q 422 764 464 749 l 304 811 q 258 821 281 821 q 172 744 199 821 l 136 907 z "},"æ":{"ha":1119,"x_min":-11,"x_max":1132,"o":"m 813 -15 q 663 10 731 -15 q 547 83 596 36 q 424 10 493 35 q 279 -15 354 -15 q 62 46 135 -15 q -11 214 -11 107 q 61 385 -11 328 q 261 442 133 442 q 411 401 354 442 l 411 419 q 373 486 411 464 q 275 508 335 508 q 163 492 221 508 q 64 446 106 475 l 64 631 q 168 671 106 656 q 297 686 231 686 q 442 663 375 686 q 553 593 510 640 q 664 663 600 639 q 803 686 728 686 q 978 642 904 686 q 1092 520 1053 599 q 1132 338 1132 442 l 1132 282 l 724 282 q 863 189 749 189 q 961 206 911 189 q 1040 244 1011 222 l 1040 38 q 937 -1 1000 14 q 813 -15 874 -15 m 251 221 q 273 169 251 186 q 331 151 294 151 q 390 167 369 151 q 411 211 410 183 l 411 222 q 389 270 411 254 q 329 286 367 286 q 251 221 251 286 m 882 413 q 858 459 876 443 q 811 475 839 475 q 729 413 754 475 l 882 413 z "},"b":{"ha":774,"x_min":42,"x_max":774,"o":"m 490 -15 q 317 65 382 -15 l 317 0 l 42 0 l 42 972 l 333 972 l 333 625 q 490 686 397 686 q 634 642 569 686 q 736 518 699 599 q 774 335 774 438 q 736 152 774 232 q 634 28 699 72 q 490 -15 569 -15 m 333 332 q 353 266 333 290 q 408 242 372 242 q 462 266 442 242 q 482 335 482 290 q 463 403 482 378 q 408 429 443 429 q 353 405 374 429 q 333 336 333 381 l 333 332 z "},"c":{"ha":561,"x_min":-7,"x_max":524,"o":"m 347 -15 q 166 31 247 -15 q 39 158 85 78 q -7 335 -7 239 q 39 511 -7 431 q 166 639 85 592 q 347 686 247 686 q 524 639 446 686 l 524 394 q 458 421 488 413 q 388 429 428 429 q 312 403 338 429 q 286 335 286 376 q 312 267 286 293 q 388 242 338 242 q 524 297 476 242 l 524 29 q 347 -15 443 -15 z "},"ć":{"ha":561,"x_min":-7,"x_max":575,"o":"m 347 -15 q 166 31 247 -15 q 39 158 85 78 q -7 335 -7 239 q 39 511 -7 431 q 166 639 85 592 q 347 686 247 686 q 524 639 446 686 l 524 394 q 458 421 488 413 q 388 429 428 429 q 312 403 338 429 q 286 335 286 376 q 312 267 286 293 q 388 242 338 242 q 524 297 476 242 l 524 29 q 347 -15 443 -15 m 286 1000 l 575 1000 l 403 742 l 168 742 l 286 1000 z "},"č":{"ha":561,"x_min":-64,"x_max":625,"o":"m 347 -15 q 166 31 247 -15 q 39 158 85 78 q -7 335 -7 239 q 39 511 -7 431 q 166 639 85 592 q 347 686 247 686 q 524 639 446 686 l 524 394 q 458 421 488 413 q 388 429 428 429 q 312 403 338 429 q 286 335 286 376 q 312 267 286 293 q 388 242 338 242 q 524 297 476 242 l 524 29 q 347 -15 443 -15 m -64 1000 l 175 1000 l 281 851 l 386 1000 l 625 1000 l 433 742 l 125 742 l -64 1000 z "},"ç":{"ha":561,"x_min":-7,"x_max":524,"o":"m 322 -14 l 294 -71 l 297 -71 q 397 -105 363 -71 q 432 -187 432 -139 q 374 -287 432 -250 q 218 -324 317 -324 q 121 -315 165 -324 l 121 -231 q 147 -232 125 -232 q 195 -222 176 -232 q 214 -197 214 -212 q 171 -174 214 -174 q 121 -181 149 -174 l 121 -126 l 213 10 q 53 135 113 47 q -7 335 -7 224 q 39 511 -7 431 q 166 639 85 592 q 347 686 247 686 q 524 639 446 686 l 524 394 q 458 421 488 413 q 388 429 428 429 q 312 403 338 429 q 286 335 286 376 q 312 267 286 293 q 388 242 338 242 q 524 297 476 242 l 524 29 q 347 -15 443 -15 l 322 -14 z "},"d":{"ha":774,"x_min":0,"x_max":732,"o":"m 283 -15 q 140 28 204 -15 q 38 152 75 72 q 0 335 0 232 q 38 518 0 438 q 140 642 75 599 q 283 686 204 686 q 440 625 376 686 l 440 972 l 732 972 l 732 0 l 457 0 l 457 65 q 283 -15 392 -15 m 292 335 q 312 266 292 290 q 365 242 332 242 q 421 266 401 242 q 440 332 440 290 l 440 336 q 420 405 440 381 q 365 429 400 429 q 311 403 331 429 q 292 335 292 378 z "},"ď":{"ha":774,"x_min":0,"x_max":1125,"o":"m 283 -15 q 140 28 204 -15 q 38 152 75 72 q 0 335 0 232 q 38 518 0 438 q 140 642 75 599 q 283 686 204 686 q 440 625 376 686 l 440 972 l 732 972 l 732 0 l 457 0 l 457 65 q 283 -15 392 -15 m 292 335 q 312 266 292 290 q 365 242 332 242 q 421 266 401 242 q 440 332 440 290 l 440 336 q 420 405 440 381 q 365 429 400 429 q 311 403 331 429 q 292 335 292 378 m 849 1000 l 1125 1000 l 982 742 l 760 742 l 849 1000 z "},"đ":{"ha":774,"x_min":0,"x_max":826,"o":"m 283 -15 q 140 28 204 -15 q 38 152 75 72 q 0 335 0 232 q 38 518 0 438 q 140 642 75 599 q 283 686 204 686 q 440 625 376 686 l 440 760 l 289 760 l 289 878 l 440 878 l 440 972 l 732 972 l 732 878 l 826 878 l 826 760 l 732 760 l 732 0 l 457 0 l 457 65 q 283 -15 392 -15 m 292 335 q 312 266 292 290 q 365 242 332 242 q 421 266 401 242 q 440 332 440 290 l 440 336 q 420 405 440 381 q 365 429 400 429 q 311 403 331 429 q 292 335 292 378 z "},"ð":{"ha":758,"x_min":-7,"x_max":757,"o":"m 363 -14 q 177 26 261 -14 q 43 144 93 65 q -7 332 -7 222 q 72 551 -7 469 q 289 633 150 633 q 425 604 371 633 q 315 749 392 678 l 144 685 l 97 794 l 204 835 q 65 918 149 872 l 289 982 q 418 914 361 951 l 572 972 l 618 863 l 531 829 q 697 613 638 733 q 757 368 757 493 q 705 165 757 251 q 563 32 653 78 q 363 -14 474 -14 m 368 242 q 430 267 408 242 q 451 336 451 293 q 428 405 451 381 q 368 429 406 429 q 306 404 328 429 q 285 336 285 379 q 307 267 285 292 q 368 242 329 242 z "},"e":{"ha":667,"x_min":-4,"x_max":679,"o":"m 360 -15 q 168 30 250 -15 q 41 155 86 75 q -4 336 -4 235 q 41 519 -4 439 q 167 642 86 599 q 350 686 249 686 q 526 642 451 686 q 640 520 600 599 q 679 338 679 442 l 679 282 l 271 282 q 410 189 296 189 q 508 206 458 189 q 588 244 558 222 l 588 38 q 484 -1 547 14 q 360 -15 421 -15 m 429 413 q 405 459 424 443 q 358 475 386 475 q 276 413 301 475 l 429 413 z "},"é":{"ha":667,"x_min":-4,"x_max":679,"o":"m 360 -15 q 168 30 250 -15 q 41 155 86 75 q -4 336 -4 235 q 41 519 -4 439 q 167 642 86 599 q 350 686 249 686 q 526 642 451 686 q 640 520 600 599 q 679 338 679 442 l 679 282 l 271 282 q 410 189 296 189 q 508 206 458 189 q 588 244 558 222 l 588 38 q 484 -1 547 14 q 360 -15 421 -15 m 429 413 q 405 459 424 443 q 358 475 386 475 q 276 413 301 475 l 429 413 m 339 1000 l 628 1000 l 456 742 l 221 742 l 339 1000 z "},"ě":{"ha":667,"x_min":-11,"x_max":679,"o":"m 360 -15 q 168 30 250 -15 q 41 155 86 75 q -4 336 -4 235 q 41 519 -4 439 q 167 642 86 599 q 350 686 249 686 q 526 642 451 686 q 640 520 600 599 q 679 338 679 442 l 679 282 l 271 282 q 410 189 296 189 q 508 206 458 189 q 588 244 558 222 l 588 38 q 484 -1 547 14 q 360 -15 421 -15 m 429 413 q 405 459 424 443 q 358 475 386 475 q 276 413 301 475 l 429 413 m -11 1000 l 228 1000 l 333 851 l 439 1000 l 678 1000 l 486 742 l 178 742 l -11 1000 z "},"ê":{"ha":667,"x_min":-11,"x_max":679,"o":"m 360 -15 q 168 30 250 -15 q 41 155 86 75 q -4 336 -4 235 q 41 519 -4 439 q 167 642 86 599 q 350 686 249 686 q 526 642 451 686 q 640 520 600 599 q 679 338 679 442 l 679 282 l 271 282 q 410 189 296 189 q 508 206 458 189 q 588 244 558 222 l 588 38 q 484 -1 547 14 q 360 -15 421 -15 m 429 413 q 405 459 424 443 q 358 475 386 475 q 276 413 301 475 l 429 413 m 178 1000 l 486 1000 l 678 742 l 439 742 l 333 890 l 228 742 l -11 742 l 178 1000 z "},"ë":{"ha":667,"x_min":-4,"x_max":679,"o":"m 360 -15 q 168 30 250 -15 q 41 155 86 75 q -4 336 -4 235 q 41 519 -4 439 q 167 642 86 599 q 350 686 249 686 q 526 642 451 686 q 640 520 600 599 q 679 338 679 442 l 679 282 l 271 282 q 410 189 296 189 q 508 206 458 189 q 588 244 558 222 l 588 38 q 484 -1 547 14 q 360 -15 421 -15 m 429 413 q 405 459 424 443 q 358 475 386 475 q 276 413 301 475 l 429 413 m 158 736 q 47 773 89 736 q 4 869 4 810 q 45 969 4 932 q 158 1006 86 1006 q 269 968 228 1006 q 311 869 311 931 q 269 773 311 810 q 158 736 228 736 m 508 736 q 397 773 439 736 q 354 869 354 810 q 397 968 354 931 q 508 1006 439 1006 q 620 968 578 1006 q 663 869 663 931 q 620 773 663 810 q 508 736 578 736 z "},"ė":{"ha":667,"x_min":-4,"x_max":679,"o":"m 360 -15 q 168 30 250 -15 q 41 155 86 75 q -4 336 -4 235 q 41 519 -4 439 q 167 642 86 599 q 350 686 249 686 q 526 642 451 686 q 640 520 600 599 q 679 338 679 442 l 679 282 l 271 282 q 410 189 296 189 q 508 206 458 189 q 588 244 558 222 l 588 38 q 484 -1 547 14 q 360 -15 421 -15 m 429 413 q 405 459 424 443 q 358 475 386 475 q 276 413 301 475 l 429 413 m 333 736 q 222 773 264 736 q 179 869 179 810 q 222 968 179 931 q 333 1006 264 1006 q 445 968 403 1006 q 488 869 488 931 q 445 773 488 810 q 333 736 403 736 z "},"è":{"ha":667,"x_min":-4,"x_max":679,"o":"m 360 -15 q 168 30 250 -15 q 41 155 86 75 q -4 336 -4 235 q 41 519 -4 439 q 167 642 86 599 q 350 686 249 686 q 526 642 451 686 q 640 520 600 599 q 679 338 679 442 l 679 282 l 271 282 q 410 189 296 189 q 508 206 458 189 q 588 244 558 222 l 588 38 q 484 -1 547 14 q 360 -15 421 -15 m 429 413 q 405 459 424 443 q 358 475 386 475 q 276 413 301 475 l 429 413 m 38 1000 l 326 1000 l 444 742 l 210 742 l 38 1000 z "},"ē":{"ha":667,"x_min":-4,"x_max":679,"o":"m 360 -15 q 168 30 250 -15 q 41 155 86 75 q -4 336 -4 235 q 41 519 -4 439 q 167 642 86 599 q 350 686 249 686 q 526 642 451 686 q 640 520 600 599 q 679 338 679 442 l 679 282 l 271 282 q 410 189 296 189 q 508 206 458 189 q 588 244 558 222 l 588 38 q 484 -1 547 14 q 360 -15 421 -15 m 429 413 q 405 459 424 443 q 358 475 386 475 q 276 413 301 475 l 429 413 m 79 961 l 586 961 l 586 768 l 79 768 l 79 961 z "},"ę":{"ha":667,"x_min":-4,"x_max":679,"o":"m 446 -307 q 311 -269 361 -307 q 261 -168 261 -232 q 350 -15 261 -89 q 163 32 243 -14 q 40 157 83 78 q -4 336 -4 236 q 41 519 -4 439 q 167 642 86 599 q 350 686 249 686 q 526 642 451 686 q 640 520 600 599 q 679 338 679 442 l 679 282 l 271 282 q 410 189 296 189 q 508 206 458 189 q 588 244 558 222 l 588 38 q 538 15 563 22 q 496 -21 518 -1 q 460 -62 474 -40 q 447 -111 447 -85 q 463 -156 447 -140 q 507 -172 478 -172 q 588 -144 547 -172 l 588 -274 q 446 -307 525 -307 m 429 413 q 405 459 424 443 q 358 475 386 475 q 276 413 301 475 l 429 413 z "},"f":{"ha":468,"x_min":-15,"x_max":510,"o":"m 85 432 l -15 432 l -15 671 l 85 671 l 85 686 q 158 913 85 842 q 356 985 232 985 q 510 954 442 985 l 510 717 q 431 739 463 739 q 376 679 376 739 l 376 671 l 486 671 l 486 432 l 376 432 l 376 0 l 85 0 l 85 432 z "},"g":{"ha":750,"x_min":0,"x_max":708,"o":"m 385 -274 q 249 -255 318 -274 q 124 -204 181 -236 l 124 8 q 292 -43 193 -43 q 397 -19 361 -43 q 433 51 433 6 l 433 108 q 356 48 400 69 q 260 26 313 26 q 124 69 183 26 q 33 186 65 111 q 0 356 0 261 q 71 599 0 511 q 260 686 142 686 q 417 628 354 686 l 417 671 l 708 671 l 708 51 q 619 -187 708 -101 q 385 -274 531 -274 m 342 279 q 396 300 375 279 q 417 356 417 321 q 396 410 417 390 q 342 429 375 429 q 288 410 308 429 q 268 356 268 390 q 288 300 268 321 q 342 279 308 279 z "},"ģ":{"ha":750,"x_min":0,"x_max":708,"o":"m 385 -274 q 249 -255 318 -274 q 124 -204 181 -236 l 124 8 q 292 -43 193 -43 q 397 -19 361 -43 q 433 51 433 6 l 433 108 q 356 48 400 69 q 260 26 313 26 q 124 69 183 26 q 33 186 65 111 q 0 356 0 261 q 71 599 0 511 q 260 686 142 686 q 417 628 354 686 l 417 671 l 708 671 l 708 51 q 619 -187 708 -101 q 385 -274 531 -274 m 342 279 q 396 300 375 279 q 417 356 417 321 q 396 410 417 390 q 342 429 375 429 q 288 410 308 429 q 268 356 268 390 q 288 300 268 321 q 342 279 308 279 m 440 976 q 512 933 485 963 q 539 865 539 903 q 492 778 539 814 q 381 743 446 743 q 267 778 314 743 q 221 865 221 814 q 257 947 221 901 l 379 1101 l 540 1101 l 440 976 z "},"h":{"ha":768,"x_min":42,"x_max":736,"o":"m 444 363 q 431 407 444 392 q 396 422 418 422 q 350 397 367 422 q 333 329 333 372 l 333 0 l 42 0 l 42 972 l 333 972 l 333 611 q 513 686 399 686 q 680 617 624 686 q 736 422 736 549 l 736 0 l 444 0 l 444 363 z "},"i":{"ha":375,"x_min":14,"x_max":360,"o":"m 42 671 l 333 671 l 333 0 l 42 0 l 42 671 m 188 710 q 62 751 110 710 q 14 857 14 792 q 62 966 14 925 q 188 1007 110 1007 q 313 966 265 1007 q 360 857 360 925 q 312 751 360 792 q 188 710 264 710 z "},"í":{"ha":375,"x_min":42,"x_max":482,"o":"m 42 671 l 333 671 l 333 0 l 42 0 l 42 671 m 193 1000 l 482 1000 l 310 742 l 75 742 l 193 1000 z "},"î":{"ha":375,"x_min":-157,"x_max":532,"o":"m 42 671 l 333 671 l 333 0 l 42 0 l 42 671 m 32 1000 l 340 1000 l 532 742 l 293 742 l 188 890 l 82 742 l -157 742 l 32 1000 z "},"ï":{"ha":375,"x_min":-142,"x_max":517,"o":"m 42 671 l 333 671 l 333 0 l 42 0 l 42 671 m 13 736 q -99 773 -57 736 q -142 869 -142 810 q -101 969 -142 932 q 13 1006 -60 1006 q 124 968 82 1006 q 165 869 165 931 q 124 773 165 810 q 13 736 82 736 m 363 736 q 251 773 293 736 q 208 869 208 810 q 251 968 208 931 q 363 1006 293 1006 q 474 968 432 1006 q 517 869 517 931 q 474 773 517 810 q 363 736 432 736 z "},"ì":{"ha":375,"x_min":-108,"x_max":333,"o":"m 42 671 l 333 671 l 333 0 l 42 0 l 42 671 m -108 1000 l 181 1000 l 299 742 l 64 742 l -108 1000 z "},"ī":{"ha":375,"x_min":-67,"x_max":440,"o":"m 42 671 l 333 671 l 333 0 l 42 0 l 42 671 m -67 961 l 440 961 l 440 768 l -67 768 l -67 961 z "},"į":{"ha":375,"x_min":-67,"x_max":342,"o":"m 42 671 l 333 671 l 333 0 l 192 0 q 139 -52 158 -26 q 119 -111 119 -78 q 135 -156 119 -140 q 179 -172 150 -172 q 260 -144 219 -172 l 260 -274 q 118 -307 197 -307 q -17 -269 33 -307 q -67 -168 -67 -232 q -39 -82 -67 -125 q 42 0 -11 -39 l 42 671 m 188 736 q 76 773 118 736 q 33 869 33 810 q 76 968 33 931 q 188 1006 118 1006 q 299 968 257 1006 q 342 869 342 931 q 299 773 342 810 q 188 736 257 736 z "},"ĳ":{"ha":761,"x_min":14,"x_max":746,"o":"m 42 671 l 333 671 l 333 0 l 42 0 l 42 671 m 188 710 q 62 751 110 710 q 14 857 14 792 q 62 966 14 925 q 188 1007 110 1007 q 313 966 265 1007 q 360 857 360 925 q 312 751 360 792 q 188 710 264 710 m 353 -250 q 408 -201 389 -236 q 428 -121 428 -165 l 428 671 l 719 671 l 719 -121 q 699 -201 719 -165 q 644 -250 678 -236 l 353 -250 m 574 710 q 448 751 496 710 q 400 857 400 792 q 448 966 400 925 q 574 1007 496 1007 q 699 966 651 1007 q 746 857 746 925 q 698 751 746 792 q 574 710 650 710 z "},"j":{"ha":389,"x_min":-19,"x_max":374,"o":"m -19 -250 q 36 -201 17 -236 q 56 -121 56 -165 l 56 671 l 347 671 l 347 -121 q 326 -201 347 -165 q 272 -250 306 -236 l -19 -250 m 201 710 q 76 751 124 710 q 28 857 28 792 q 76 966 28 925 q 201 1007 124 1007 q 326 966 279 1007 q 374 857 374 925 q 326 751 374 792 q 201 710 278 710 z "},"ȷ":{"ha":389,"x_min":-19,"x_max":347,"o":"m -19 -204 q 36 -155 17 -190 q 56 -75 56 -119 l 56 671 l 347 671 l 347 -75 q 326 -155 347 -119 q 272 -204 306 -190 l -19 -204 z "},"k":{"ha":761,"x_min":42,"x_max":799,"o":"m 42 972 l 333 972 l 333 414 l 486 671 l 799 671 l 578 346 l 799 0 l 486 0 l 333 274 l 333 0 l 42 0 l 42 972 z "},"ķ":{"ha":761,"x_min":42,"x_max":799,"o":"m 42 972 l 333 972 l 333 414 l 486 671 l 799 671 l 578 346 l 799 0 l 486 0 l 333 274 l 333 0 l 42 0 l 42 972 m 315 -282 q 244 -238 271 -268 q 217 -171 217 -208 q 263 -84 217 -119 q 375 -49 310 -49 q 488 -84 442 -49 q 535 -171 535 -119 q 499 -253 535 -207 l 376 -407 l 215 -407 l 315 -282 z "},"l":{"ha":375,"x_min":42,"x_max":333,"o":"m 42 972 l 333 972 l 333 0 l 42 0 l 42 972 z "},"ĺ":{"ha":375,"x_min":42,"x_max":482,"o":"m 42 972 l 333 972 l 333 0 l 42 0 l 42 972 m 193 1347 l 482 1347 l 310 1089 l 75 1089 l 193 1347 z "},"ľ":{"ha":375,"x_min":42,"x_max":731,"o":"m 42 972 l 333 972 l 333 0 l 42 0 l 42 972 m 454 1000 l 731 1000 l 588 742 l 365 742 l 454 1000 z "},"ļ":{"ha":375,"x_min":22,"x_max":342,"o":"m 42 972 l 333 972 l 333 0 l 42 0 l 42 972 m 122 -282 q 51 -238 78 -268 q 24 -171 24 -208 q 70 -84 24 -119 q 182 -49 117 -49 q 295 -84 249 -49 q 342 -171 342 -119 q 306 -253 342 -207 l 183 -407 l 22 -407 l 122 -282 z "},"ł":{"ha":375,"x_min":-19,"x_max":396,"o":"m 42 278 l -19 242 l -19 451 l 42 488 l 42 972 l 333 972 l 333 661 l 396 699 l 396 489 l 333 451 l 333 0 l 42 0 l 42 278 z "},"m":{"ha":1171,"x_min":42,"x_max":1139,"o":"m 847 363 q 834 407 847 392 q 799 422 821 422 q 753 397 769 422 q 736 329 736 372 l 736 0 l 444 0 l 444 363 q 431 407 444 392 q 396 422 418 422 q 350 397 367 422 q 333 329 333 372 l 333 0 l 42 0 l 42 671 l 317 671 l 317 590 q 513 686 383 686 q 708 572 654 686 q 794 658 742 629 q 915 686 847 686 q 1083 617 1026 686 q 1139 422 1139 549 l 1139 0 l 847 0 l 847 363 z "},"n":{"ha":768,"x_min":42,"x_max":736,"o":"m 444 363 q 431 407 444 392 q 396 422 418 422 q 350 397 367 422 q 333 329 333 372 l 333 0 l 42 0 l 42 671 l 317 671 l 317 590 q 513 686 383 686 q 680 617 624 686 q 736 422 736 549 l 736 0 l 444 0 l 444 363 z "},"ń":{"ha":768,"x_min":42,"x_max":736,"o":"m 444 363 q 431 407 444 392 q 396 422 418 422 q 350 397 367 422 q 333 329 333 372 l 333 0 l 42 0 l 42 671 l 317 671 l 317 590 q 513 686 383 686 q 680 617 624 686 q 736 422 736 549 l 736 0 l 444 0 l 444 363 m 390 1000 l 679 1000 l 507 742 l 272 742 l 390 1000 z "},"ň":{"ha":768,"x_min":40,"x_max":736,"o":"m 444 363 q 431 407 444 392 q 396 422 418 422 q 350 397 367 422 q 333 329 333 372 l 333 0 l 42 0 l 42 671 l 317 671 l 317 590 q 513 686 383 686 q 680 617 624 686 q 736 422 736 549 l 736 0 l 444 0 l 444 363 m 40 1000 l 279 1000 l 385 851 l 490 1000 l 729 1000 l 538 742 l 229 742 l 40 1000 z "},"ņ":{"ha":768,"x_min":42,"x_max":736,"o":"m 444 363 q 431 407 444 392 q 396 422 418 422 q 350 397 367 422 q 333 329 333 372 l 333 0 l 42 0 l 42 671 l 317 671 l 317 590 q 513 686 383 686 q 680 617 624 686 q 736 422 736 549 l 736 0 l 444 0 l 444 363 m 319 -282 q 248 -238 275 -268 q 221 -171 221 -208 q 267 -84 221 -119 q 379 -49 314 -49 q 492 -84 446 -49 q 539 -171 539 -119 q 503 -253 539 -207 l 381 -407 l 219 -407 l 319 -282 z "},"ñ":{"ha":768,"x_min":42,"x_max":736,"o":"m 444 363 q 431 407 444 392 q 396 422 418 422 q 350 397 367 422 q 333 329 333 372 l 333 0 l 42 0 l 42 671 l 317 671 l 317 590 q 513 686 383 686 q 680 617 624 686 q 736 422 736 549 l 736 0 l 444 0 l 444 363 m 143 907 q 265 997 188 997 q 339 982 303 997 l 456 933 q 503 924 481 924 q 589 1001 561 924 l 625 839 q 504 749 582 749 q 429 764 471 749 l 311 811 q 265 821 288 821 q 179 744 206 821 l 143 907 z "},"o":{"ha":724,"x_min":-4,"x_max":728,"o":"m 361 -15 q 170 28 253 -15 q 42 151 88 72 q -4 335 -4 231 q 42 519 -4 439 q 170 642 88 599 q 361 686 253 686 q 553 642 469 686 q 682 519 636 599 q 728 335 728 439 q 682 151 728 231 q 553 28 636 72 q 361 -15 469 -15 m 361 242 q 417 267 397 242 q 436 335 436 292 q 416 404 436 379 q 361 429 396 429 q 307 403 326 429 q 288 335 288 378 q 308 266 288 290 q 361 242 328 242 z "},"ó":{"ha":724,"x_min":-4,"x_max":728,"o":"m 361 -15 q 170 28 253 -15 q 42 151 88 72 q -4 335 -4 231 q 42 519 -4 439 q 170 642 88 599 q 361 686 253 686 q 553 642 469 686 q 682 519 636 599 q 728 335 728 439 q 682 151 728 231 q 553 28 636 72 q 361 -15 469 -15 m 361 242 q 417 267 397 242 q 436 335 436 292 q 416 404 436 379 q 361 429 396 429 q 307 403 326 429 q 288 335 288 378 q 308 266 288 290 q 361 242 328 242 m 368 1000 l 657 1000 l 485 742 l 250 742 l 368 1000 z "},"ô":{"ha":724,"x_min":-4,"x_max":728,"o":"m 361 -15 q 170 28 253 -15 q 42 151 88 72 q -4 335 -4 231 q 42 519 -4 439 q 170 642 88 599 q 361 686 253 686 q 553 642 469 686 q 682 519 636 599 q 728 335 728 439 q 682 151 728 231 q 553 28 636 72 q 361 -15 469 -15 m 361 242 q 417 267 397 242 q 436 335 436 292 q 416 404 436 379 q 361 429 396 429 q 307 403 326 429 q 288 335 288 378 q 308 266 288 290 q 361 242 328 242 m 207 1000 l 515 1000 l 707 742 l 468 742 l 363 890 l 257 742 l 18 742 l 207 1000 z "},"ö":{"ha":724,"x_min":-4,"x_max":728,"o":"m 361 -15 q 170 28 253 -15 q 42 151 88 72 q -4 335 -4 231 q 42 519 -4 439 q 170 642 88 599 q 361 686 253 686 q 553 642 469 686 q 682 519 636 599 q 728 335 728 439 q 682 151 728 231 q 553 28 636 72 q 361 -15 469 -15 m 361 242 q 417 267 397 242 q 436 335 436 292 q 416 404 436 379 q 361 429 396 429 q 307 403 326 429 q 288 335 288 378 q 308 266 288 290 q 361 242 328 242 m 188 736 q 76 773 118 736 q 33 869 33 810 q 74 969 33 932 q 188 1006 115 1006 q 299 968 257 1006 q 340 869 340 931 q 299 773 340 810 q 188 736 257 736 m 538 736 q 426 773 468 736 q 383 869 383 810 q 426 968 383 931 q 538 1006 468 1006 q 649 968 607 1006 q 692 869 692 931 q 649 773 692 810 q 538 736 607 736 z "},"ò":{"ha":724,"x_min":-4,"x_max":728,"o":"m 361 -15 q 170 28 253 -15 q 42 151 88 72 q -4 335 -4 231 q 42 519 -4 439 q 170 642 88 599 q 361 686 253 686 q 553 642 469 686 q 682 519 636 599 q 728 335 728 439 q 682 151 728 231 q 553 28 636 72 q 361 -15 469 -15 m 361 242 q 417 267 397 242 q 436 335 436 292 q 416 404 436 379 q 361 429 396 429 q 307 403 326 429 q 288 335 288 378 q 308 266 288 290 q 361 242 328 242 m 67 1000 l 356 1000 l 474 742 l 239 742 l 67 1000 z "},"ő":{"ha":724,"x_min":-4,"x_max":814,"o":"m 361 -15 q 170 28 253 -15 q 42 151 88 72 q -4 335 -4 231 q 42 519 -4 439 q 170 642 88 599 q 361 686 253 686 q 553 642 469 686 q 682 519 636 599 q 728 335 728 439 q 682 151 728 231 q 553 28 636 72 q 361 -15 469 -15 m 361 242 q 417 267 397 242 q 436 335 436 292 q 416 404 436 379 q 361 429 396 429 q 307 403 326 429 q 288 335 288 378 q 308 266 288 290 q 361 242 328 242 m 171 1000 l 460 1000 l 307 742 l 72 742 l 171 1000 m 525 1000 l 814 1000 l 661 742 l 426 742 l 525 1000 z "},"ō":{"ha":724,"x_min":-4,"x_max":728,"o":"m 361 -15 q 170 28 253 -15 q 42 151 88 72 q -4 335 -4 231 q 42 519 -4 439 q 170 642 88 599 q 361 686 253 686 q 553 642 469 686 q 682 519 636 599 q 728 335 728 439 q 682 151 728 231 q 553 28 636 72 q 361 -15 469 -15 m 361 242 q 417 267 397 242 q 436 335 436 292 q 416 404 436 379 q 361 429 396 429 q 307 403 326 429 q 288 335 288 378 q 308 266 288 290 q 361 242 328 242 m 108 961 l 615 961 l 615 768 l 108 768 l 108 961 z "},"ø":{"ha":724,"x_min":-29,"x_max":753,"o":"m 361 -15 q 174 26 256 -15 l 97 -69 l -29 -69 l 94 83 q 22 194 47 131 q -4 335 -4 258 q 42 519 -4 439 q 170 642 88 599 q 361 686 253 686 q 547 646 464 686 l 625 743 l 753 743 l 628 589 q 728 335 728 492 q 682 151 728 231 q 553 28 636 72 q 361 -15 469 -15 m 361 242 q 417 267 397 242 q 436 335 436 292 l 436 350 l 349 243 l 361 242 m 288 324 l 372 429 l 361 429 q 307 403 326 429 q 288 335 288 378 l 288 324 z "},"õ":{"ha":724,"x_min":-4,"x_max":728,"o":"m 361 -15 q 170 28 253 -15 q 42 151 88 72 q -4 335 -4 231 q 42 519 -4 439 q 170 642 88 599 q 361 686 253 686 q 553 642 469 686 q 682 519 636 599 q 728 335 728 439 q 682 151 728 231 q 553 28 636 72 q 361 -15 469 -15 m 361 242 q 417 267 397 242 q 436 335 436 292 q 416 404 436 379 q 361 429 396 429 q 307 403 326 429 q 288 335 288 378 q 308 266 288 290 q 361 242 328 242 m 121 907 q 243 997 165 997 q 317 982 281 997 l 433 933 q 481 924 458 924 q 567 1001 539 924 l 603 839 q 482 749 560 749 q 407 764 449 749 l 289 811 q 243 821 265 821 q 157 744 183 821 l 121 907 z "},"œ":{"ha":1136,"x_min":-4,"x_max":1149,"o":"m 361 -15 q 170 28 253 -15 q 42 151 88 72 q -4 335 -4 231 q 42 519 -4 439 q 170 642 88 599 q 361 686 253 686 q 596 611 504 686 q 819 686 683 686 q 995 642 921 686 q 1109 520 1069 599 q 1149 338 1149 442 l 1149 282 l 740 282 q 879 189 765 189 q 978 206 928 189 q 1057 244 1028 222 l 1057 38 q 953 -1 1017 14 q 829 -15 890 -15 q 597 60 688 -15 q 361 -15 503 -15 m 361 242 q 417 267 397 242 q 436 335 436 292 q 416 404 436 379 q 361 429 396 429 q 307 403 326 429 q 288 335 288 378 q 308 266 288 290 q 361 242 328 242 m 899 413 q 874 459 893 443 q 828 475 856 475 q 746 413 771 475 l 899 413 z "},"p":{"ha":774,"x_min":42,"x_max":774,"o":"m 490 -15 q 333 46 397 -15 l 333 -250 l 42 -250 l 42 671 l 317 671 l 317 606 q 490 686 382 686 q 634 642 569 686 q 736 519 699 599 q 774 336 774 439 q 736 153 774 233 q 634 28 699 72 q 490 -15 569 -15 m 333 335 q 353 266 333 290 q 408 242 374 242 q 463 267 443 242 q 482 336 482 293 q 462 405 482 381 q 408 429 442 429 q 353 405 372 429 q 333 339 333 381 l 333 335 z "},"þ":{"ha":774,"x_min":42,"x_max":774,"o":"m 490 -15 q 333 46 397 -15 l 333 -250 l 42 -250 l 42 972 l 333 972 l 333 624 q 490 686 396 686 q 634 642 569 686 q 736 519 699 599 q 774 336 774 439 q 736 153 774 233 q 634 28 699 72 q 490 -15 569 -15 m 333 335 q 353 266 333 290 q 408 242 374 242 q 463 267 443 242 q 482 336 482 293 q 462 405 482 381 q 408 429 442 429 q 353 405 372 429 q 333 339 333 381 l 333 335 z "},"q":{"ha":774,"x_min":0,"x_max":732,"o":"m 283 -15 q 140 28 204 -15 q 38 153 75 72 q 0 336 0 233 q 38 519 0 439 q 140 642 75 599 q 283 686 204 686 q 457 606 392 686 l 457 671 l 732 671 l 732 -250 l 440 -250 l 440 46 q 283 -15 376 -15 m 292 336 q 311 267 292 293 q 365 242 331 242 q 420 266 400 242 q 440 335 440 290 l 440 339 q 421 405 440 381 q 365 429 401 429 q 312 405 332 429 q 292 336 292 381 z "},"r":{"ha":535,"x_min":42,"x_max":547,"o":"m 42 671 l 317 671 l 317 575 q 510 686 386 686 q 547 683 528 686 l 547 397 q 463 417 506 417 q 371 384 408 417 q 333 288 333 351 l 333 0 l 42 0 l 42 671 z "},"ŕ":{"ha":535,"x_min":42,"x_max":563,"o":"m 42 671 l 317 671 l 317 575 q 510 686 386 686 q 547 683 528 686 l 547 397 q 463 417 506 417 q 371 384 408 417 q 333 288 333 351 l 333 0 l 42 0 l 42 671 m 274 1000 l 563 1000 l 390 742 l 156 742 l 274 1000 z "},"ř":{"ha":535,"x_min":-76,"x_max":613,"o":"m 42 671 l 317 671 l 317 575 q 510 686 386 686 q 547 683 528 686 l 547 397 q 463 417 506 417 q 371 384 408 417 q 333 288 333 351 l 333 0 l 42 0 l 42 671 m -76 1000 l 163 1000 l 268 851 l 374 1000 l 613 1000 l 421 742 l 113 742 l -76 1000 z "},"ŗ":{"ha":535,"x_min":42,"x_max":547,"o":"m 42 671 l 317 671 l 317 575 q 510 686 386 686 q 547 683 528 686 l 547 397 q 463 417 506 417 q 371 384 408 417 q 333 288 333 351 l 333 0 l 42 0 l 42 671 m 203 -282 q 131 -238 158 -268 q 104 -171 104 -208 q 151 -84 104 -119 q 263 -49 197 -49 q 376 -84 329 -49 q 422 -171 422 -119 q 386 -253 422 -207 l 264 -407 l 103 -407 l 203 -282 z "},"s":{"ha":576,"x_min":17,"x_max":568,"o":"m 250 -15 q 124 4 185 -15 q 28 54 63 24 l 28 265 q 113 210 67 229 q 206 190 158 190 q 264 219 264 190 q 246 242 264 233 q 197 260 228 251 q 109 291 146 274 q 44 347 72 308 q 17 450 17 386 q 98 623 17 560 q 313 686 179 686 q 438 667 375 686 q 542 618 501 649 l 542 424 q 392 479 457 479 q 342 456 342 479 q 419 411 342 433 q 535 342 501 386 q 568 233 568 299 q 481 52 568 119 q 250 -15 393 -15 z "},"ś":{"ha":576,"x_min":17,"x_max":583,"o":"m 250 -15 q 124 4 185 -15 q 28 54 63 24 l 28 265 q 113 210 67 229 q 206 190 158 190 q 264 219 264 190 q 246 242 264 233 q 197 260 228 251 q 109 291 146 274 q 44 347 72 308 q 17 450 17 386 q 98 623 17 560 q 313 686 179 686 q 438 667 375 686 q 542 618 501 649 l 542 424 q 392 479 457 479 q 342 456 342 479 q 419 411 342 433 q 535 342 501 386 q 568 233 568 299 q 481 52 568 119 q 250 -15 393 -15 m 294 1000 l 583 1000 l 411 742 l 176 742 l 294 1000 z "},"š":{"ha":576,"x_min":-56,"x_max":633,"o":"m 250 -15 q 124 4 185 -15 q 28 54 63 24 l 28 265 q 113 210 67 229 q 206 190 158 190 q 264 219 264 190 q 246 242 264 233 q 197 260 228 251 q 109 291 146 274 q 44 347 72 308 q 17 450 17 386 q 98 623 17 560 q 313 686 179 686 q 438 667 375 686 q 542 618 501 649 l 542 424 q 392 479 457 479 q 342 456 342 479 q 419 411 342 433 q 535 342 501 386 q 568 233 568 299 q 481 52 568 119 q 250 -15 393 -15 m -56 1000 l 183 1000 l 289 851 l 394 1000 l 633 1000 l 442 742 l 133 742 l -56 1000 z "},"ş":{"ha":576,"x_min":17,"x_max":568,"o":"m 200 -324 q 103 -315 147 -324 l 103 -231 q 129 -232 107 -232 q 177 -222 158 -232 q 196 -197 196 -212 q 153 -174 196 -174 q 103 -181 131 -174 l 103 -126 l 182 -10 q 94 15 135 -3 q 28 54 53 32 l 28 265 q 113 210 67 229 q 206 190 158 190 q 264 219 264 190 q 246 242 264 233 q 197 260 228 251 q 109 291 146 274 q 44 347 72 308 q 17 450 17 386 q 98 623 17 560 q 313 686 179 686 q 438 667 375 686 q 542 618 501 649 l 542 424 q 392 479 457 479 q 342 456 342 479 q 419 411 342 433 q 535 342 501 386 q 568 233 568 299 q 497 66 568 132 q 306 -12 425 0 l 276 -71 l 279 -71 q 379 -105 344 -71 q 414 -187 414 -139 q 356 -287 414 -250 q 200 -324 299 -324 z "},"ß":{"ha":938,"x_min":33,"x_max":924,"o":"m 444 235 q 499 258 476 235 q 521 311 521 281 q 499 365 521 343 q 444 388 476 388 l 444 601 q 492 622 472 601 q 513 669 513 642 q 492 717 513 697 q 444 738 472 738 q 397 717 417 738 q 376 669 376 697 l 376 0 l 33 0 l 33 644 q 142 910 33 825 q 446 994 251 994 q 723 920 635 994 q 811 714 811 846 q 721 518 811 569 q 872 427 819 494 q 924 271 924 360 q 880 116 924 181 q 763 19 836 51 q 604 -14 690 -14 q 444 17 519 -14 l 444 235 z "},"t":{"ha":514,"x_min":-15,"x_max":486,"o":"m 335 -15 q 85 226 85 -15 l 85 432 l -15 432 l -15 671 l 85 671 l 85 849 l 376 849 l 376 671 l 486 671 l 486 432 l 376 432 l 376 275 q 418 222 376 222 q 486 242 440 222 l 486 15 q 406 -9 439 -3 q 335 -15 374 -15 z "},"ť":{"ha":514,"x_min":-15,"x_max":783,"o":"m 335 -15 q 85 226 85 -15 l 85 432 l -15 432 l -15 671 l 85 671 l 85 849 l 376 849 l 376 671 l 486 671 l 486 432 l 376 432 l 376 275 q 418 222 376 222 q 486 242 440 222 l 486 15 q 406 -9 439 -3 q 335 -15 374 -15 m 507 1000 l 783 1000 l 640 742 l 418 742 l 507 1000 z "},"ţ":{"ha":514,"x_min":-15,"x_max":486,"o":"m 335 -15 q 274 -11 301 -15 l 244 -71 l 247 -71 q 347 -105 313 -71 q 382 -187 382 -139 q 324 -287 382 -250 q 168 -324 267 -324 q 71 -315 115 -324 l 71 -231 q 97 -232 75 -232 q 145 -222 126 -232 q 164 -197 164 -212 q 121 -174 164 -174 q 71 -181 99 -174 l 71 -126 l 174 24 q 85 226 85 83 l 85 432 l -15 432 l -15 671 l 85 671 l 85 849 l 376 849 l 376 671 l 486 671 l 486 432 l 376 432 l 376 275 q 418 222 376 222 q 486 242 440 222 l 486 15 q 406 -9 439 -3 q 335 -15 374 -15 z "},"u":{"ha":768,"x_min":32,"x_max":726,"o":"m 250 -15 q 83 54 133 -15 q 32 249 32 124 l 32 671 l 324 671 l 324 308 q 337 264 324 279 q 372 249 350 249 q 418 274 401 249 q 435 342 435 299 l 435 671 l 726 671 l 726 0 l 451 0 l 451 81 q 250 -15 385 -15 z "},"ú":{"ha":768,"x_min":32,"x_max":726,"o":"m 250 -15 q 83 54 133 -15 q 32 249 32 124 l 32 671 l 324 671 l 324 308 q 337 264 324 279 q 372 249 350 249 q 418 274 401 249 q 435 342 435 299 l 435 671 l 726 671 l 726 0 l 451 0 l 451 81 q 250 -15 385 -15 m 390 1000 l 679 1000 l 507 742 l 272 742 l 390 1000 z "},"û":{"ha":768,"x_min":32,"x_max":729,"o":"m 250 -15 q 83 54 133 -15 q 32 249 32 124 l 32 671 l 324 671 l 324 308 q 337 264 324 279 q 372 249 350 249 q 418 274 401 249 q 435 342 435 299 l 435 671 l 726 671 l 726 0 l 451 0 l 451 81 q 250 -15 385 -15 m 229 1000 l 538 1000 l 729 742 l 490 742 l 385 890 l 279 742 l 40 742 l 229 1000 z "},"ü":{"ha":768,"x_min":32,"x_max":726,"o":"m 250 -15 q 83 54 133 -15 q 32 249 32 124 l 32 671 l 324 671 l 324 308 q 337 264 324 279 q 372 249 350 249 q 418 274 401 249 q 435 342 435 299 l 435 671 l 726 671 l 726 0 l 451 0 l 451 81 q 250 -15 385 -15 m 210 736 q 98 773 140 736 q 56 869 56 810 q 97 969 56 932 q 210 1006 138 1006 q 321 968 279 1006 q 363 869 363 931 q 321 773 363 810 q 210 736 279 736 m 560 736 q 448 773 490 736 q 406 869 406 810 q 448 968 406 931 q 560 1006 490 1006 q 672 968 629 1006 q 714 869 714 931 q 672 773 714 810 q 560 736 629 736 z "},"ù":{"ha":768,"x_min":32,"x_max":726,"o":"m 250 -15 q 83 54 133 -15 q 32 249 32 124 l 32 671 l 324 671 l 324 308 q 337 264 324 279 q 372 249 350 249 q 418 274 401 249 q 435 342 435 299 l 435 671 l 726 671 l 726 0 l 451 0 l 451 81 q 250 -15 385 -15 m 89 1000 l 378 1000 l 496 742 l 261 742 l 89 1000 z "},"ű":{"ha":768,"x_min":32,"x_max":836,"o":"m 250 -15 q 83 54 133 -15 q 32 249 32 124 l 32 671 l 324 671 l 324 308 q 337 264 324 279 q 372 249 350 249 q 418 274 401 249 q 435 342 435 299 l 435 671 l 726 671 l 726 0 l 451 0 l 451 81 q 250 -15 385 -15 m 193 1000 l 482 1000 l 329 742 l 94 742 l 193 1000 m 547 1000 l 836 1000 l 683 742 l 449 742 l 547 1000 z "},"ū":{"ha":768,"x_min":32,"x_max":726,"o":"m 250 -15 q 83 54 133 -15 q 32 249 32 124 l 32 671 l 324 671 l 324 308 q 337 264 324 279 q 372 249 350 249 q 418 274 401 249 q 435 342 435 299 l 435 671 l 726 671 l 726 0 l 451 0 l 451 81 q 250 -15 385 -15 m 131 961 l 638 961 l 638 768 l 131 768 l 131 961 z "},"ų":{"ha":768,"x_min":32,"x_max":726,"o":"m 250 -15 q 83 54 133 -15 q 32 249 32 124 l 32 671 l 324 671 l 324 308 q 337 264 324 279 q 372 249 350 249 q 418 274 401 249 q 435 342 435 299 l 435 671 l 726 671 l 726 0 l 600 0 q 547 -52 567 -26 q 528 -111 528 -78 q 543 -156 528 -140 q 588 -172 558 -172 q 668 -144 628 -172 l 668 -274 q 526 -307 606 -307 q 392 -269 442 -307 q 342 -168 342 -232 q 451 1 342 -81 l 451 81 q 250 -15 385 -15 z "},"ů":{"ha":768,"x_min":32,"x_max":726,"o":"m 250 -15 q 83 54 133 -15 q 32 249 32 124 l 32 671 l 324 671 l 324 308 q 337 264 324 279 q 372 249 350 249 q 418 274 401 249 q 435 342 435 299 l 435 671 l 726 671 l 726 0 l 451 0 l 451 81 q 250 -15 385 -15 m 385 717 q 294 741 336 717 q 226 808 251 765 q 201 899 201 850 q 226 990 201 947 q 294 1056 251 1032 q 385 1081 336 1081 q 477 1056 435 1081 q 544 990 519 1032 q 568 899 568 949 q 544 807 568 849 q 477 741 519 765 q 385 717 435 717 m 385 861 q 411 873 400 861 q 422 899 422 885 q 411 925 422 914 q 385 936 400 936 q 359 925 371 936 q 347 899 347 914 q 359 873 347 885 q 385 861 371 861 z "},"v":{"ha":668,"x_min":-36,"x_max":704,"o":"m 186 0 l -36 671 l 256 671 l 333 329 l 413 671 l 704 671 l 482 0 l 186 0 z "},"w":{"ha":1056,"x_min":-28,"x_max":1082,"o":"m -28 671 l 264 671 l 325 319 l 381 671 l 674 671 l 729 319 l 790 671 l 1082 671 l 928 0 l 618 0 l 529 372 l 442 0 l 132 0 l -28 671 z "},"ẃ":{"ha":1056,"x_min":-28,"x_max":1082,"o":"m -28 671 l 264 671 l 325 319 l 381 671 l 674 671 l 729 319 l 790 671 l 1082 671 l 928 0 l 618 0 l 529 372 l 442 0 l 132 0 l -28 671 m 533 1000 l 822 1000 l 650 742 l 415 742 l 533 1000 z "},"ŵ":{"ha":1056,"x_min":-28,"x_max":1082,"o":"m -28 671 l 264 671 l 325 319 l 381 671 l 674 671 l 729 319 l 790 671 l 1082 671 l 928 0 l 618 0 l 529 372 l 442 0 l 132 0 l -28 671 m 372 1000 l 681 1000 l 872 742 l 633 742 l 528 890 l 422 742 l 183 742 l 372 1000 z "},"ẅ":{"ha":1056,"x_min":-28,"x_max":1082,"o":"m -28 671 l 264 671 l 325 319 l 381 671 l 674 671 l 729 319 l 790 671 l 1082 671 l 928 0 l 618 0 l 529 372 l 442 0 l 132 0 l -28 671 m 353 736 q 241 773 283 736 q 199 869 199 810 q 240 969 199 932 q 353 1006 281 1006 q 464 968 422 1006 q 506 869 506 931 q 464 773 506 810 q 353 736 422 736 m 703 736 q 591 773 633 736 q 549 869 549 810 q 591 968 549 931 q 703 1006 633 1006 q 815 968 772 1006 q 857 869 857 931 q 815 773 857 810 q 703 736 772 736 z "},"ẁ":{"ha":1056,"x_min":-28,"x_max":1082,"o":"m -28 671 l 264 671 l 325 319 l 381 671 l 674 671 l 729 319 l 790 671 l 1082 671 l 928 0 l 618 0 l 529 372 l 442 0 l 132 0 l -28 671 m 232 1000 l 521 1000 l 639 742 l 404 742 l 232 1000 z "},"x":{"ha":675,"x_min":-35,"x_max":711,"o":"m -35 0 l 171 335 l -35 671 l 256 671 l 336 517 l 421 671 l 711 671 l 504 333 l 711 0 l 421 0 l 338 154 l 256 0 l -35 0 z "},"y":{"ha":665,"x_min":-39,"x_max":701,"o":"m 210 0 l -39 671 l 253 671 l 331 357 l 410 671 l 701 671 l 397 -250 l 136 -250 l 210 0 z "},"ý":{"ha":665,"x_min":-39,"x_max":701,"o":"m 210 0 l -39 671 l 253 671 l 331 357 l 410 671 l 701 671 l 397 -250 l 136 -250 l 210 0 m 339 1000 l 628 1000 l 456 742 l 221 742 l 339 1000 z "},"ŷ":{"ha":665,"x_min":-39,"x_max":701,"o":"m 210 0 l -39 671 l 253 671 l 331 357 l 410 671 l 701 671 l 397 -250 l 136 -250 l 210 0 m 178 1000 l 486 1000 l 678 742 l 439 742 l 333 890 l 228 742 l -11 742 l 178 1000 z "},"ÿ":{"ha":665,"x_min":-39,"x_max":701,"o":"m 210 0 l -39 671 l 253 671 l 331 357 l 410 671 l 701 671 l 397 -250 l 136 -250 l 210 0 m 158 736 q 47 773 89 736 q 4 869 4 810 q 45 969 4 932 q 158 1006 86 1006 q 269 968 228 1006 q 311 869 311 931 q 269 773 311 810 q 158 736 228 736 m 508 736 q 397 773 439 736 q 354 869 354 810 q 397 968 354 931 q 508 1006 439 1006 q 620 968 578 1006 q 663 869 663 931 q 620 773 663 810 q 508 736 578 736 z "},"ỳ":{"ha":665,"x_min":-39,"x_max":701,"o":"m 210 0 l -39 671 l 253 671 l 331 357 l 410 671 l 701 671 l 397 -250 l 136 -250 l 210 0 m 38 1000 l 326 1000 l 444 742 l 210 742 l 38 1000 z "},"z":{"ha":546,"x_min":-10,"x_max":549,"o":"m 175 432 l 14 432 l 14 671 l 536 671 l 350 239 l 549 239 l 549 0 l -10 0 l 175 432 z "},"ź":{"ha":546,"x_min":-10,"x_max":568,"o":"m 175 432 l 14 432 l 14 671 l 536 671 l 350 239 l 549 239 l 549 0 l -10 0 l 175 432 m 279 1000 l 568 1000 l 396 742 l 161 742 l 279 1000 z "},"ž":{"ha":546,"x_min":-71,"x_max":618,"o":"m 175 432 l 14 432 l 14 671 l 536 671 l 350 239 l 549 239 l 549 0 l -10 0 l 175 432 m -71 1000 l 168 1000 l 274 851 l 379 1000 l 618 1000 l 426 742 l 118 742 l -71 1000 z "},"ż":{"ha":546,"x_min":-10,"x_max":549,"o":"m 175 432 l 14 432 l 14 671 l 536 671 l 350 239 l 549 239 l 549 0 l -10 0 l 175 432 m 274 736 q 162 773 204 736 q 119 869 119 810 q 162 968 119 931 q 274 1006 204 1006 q 385 968 343 1006 q 428 869 428 931 q 385 773 428 810 q 274 736 343 736 z "},"ª":{"ha":507,"x_min":4,"x_max":493,"o":"m 183 504 q 53 570 103 504 q 4 746 4 636 q 53 921 4 854 q 183 988 103 988 q 292 942 246 988 l 292 976 l 493 976 l 493 514 l 303 514 l 303 563 q 183 504 256 504 m 240 681 q 278 699 265 681 q 292 746 292 717 q 278 793 292 776 q 240 810 264 810 q 202 792 215 810 q 189 746 189 775 q 203 698 189 715 q 240 681 217 681 z "},"º":{"ha":513,"x_min":4,"x_max":508,"o":"m 256 504 q 73 570 142 504 q 4 746 4 636 q 73 921 4 854 q 256 988 142 988 q 439 921 369 988 q 508 746 508 854 q 439 570 508 636 q 256 504 369 504 m 256 681 q 294 699 281 681 q 307 746 307 717 q 293 793 307 776 q 256 810 279 810 q 219 792 232 810 q 206 746 206 775 q 219 698 206 715 q 256 681 232 681 z "},"⁄":{"ha":682,"x_min":-39,"x_max":747,"o":"m 538 996 l 747 996 l 171 -24 l -39 -24 l 538 996 z "},"½":{"ha":1122,"x_min":-1,"x_max":1124,"o":"m 51 749 q 41 784 51 776 q -1 790 31 792 l -1 931 q 81 939 51 929 q 128 972 110 949 l 250 972 l 250 394 l 51 394 l 51 749 m 679 996 l 889 996 l 313 -24 l 103 -24 l 679 996 m 693 169 q 813 249 769 204 q 857 338 857 294 q 842 376 857 363 q 803 390 828 390 q 708 357 769 390 l 708 549 q 781 576 736 565 q 869 586 826 586 q 1034 534 971 586 q 1097 400 1097 482 q 1067 285 1097 344 q 985 174 1038 226 l 1124 174 l 1124 0 l 693 0 l 693 169 z "},"¼":{"ha":1121,"x_min":-1,"x_max":1128,"o":"m 51 749 q 41 784 51 776 q -1 790 31 792 l -1 931 q 81 939 51 929 q 128 972 110 949 l 250 972 l 250 394 l 51 394 l 51 749 m 679 996 l 889 996 l 313 -24 l 103 -24 l 679 996 m 868 103 l 626 103 l 626 257 l 808 578 l 1061 578 l 1061 265 l 1128 265 l 1128 103 l 1061 103 l 1061 0 l 868 0 l 868 103 m 868 265 l 868 411 l 810 265 l 868 265 z "},"¾":{"ha":1243,"x_min":21,"x_max":1250,"o":"m 206 389 q 94 403 144 389 q 21 439 43 417 l 21 599 q 94 575 64 582 q 160 568 125 568 q 204 593 204 568 q 151 619 204 619 l 64 619 l 64 753 l 128 753 q 180 760 161 753 q 199 781 199 768 q 188 796 199 790 q 156 801 176 801 q 21 772 96 801 l 21 939 q 200 981 89 981 q 370 935 304 981 q 436 817 436 889 q 419 748 436 779 q 374 700 401 717 q 431 647 410 682 q 451 565 451 611 q 384 437 451 485 q 206 389 317 389 m 801 996 l 1011 996 l 435 -24 l 225 -24 l 801 996 m 990 103 l 749 103 l 749 257 l 931 578 l 1183 578 l 1183 265 l 1250 265 l 1250 103 l 1183 103 l 1183 0 l 990 0 l 990 103 m 990 265 l 990 411 l 932 265 l 990 265 z "}," ":{"ha":347,"x_min":0,"x_max":0,"o":""},".":{"ha":399,"x_min":26,"x_max":372,"o":"m 199 -24 q 76 26 126 -24 q 26 149 26 76 q 76 272 26 221 q 199 322 126 322 q 322 272 271 322 q 372 149 372 221 q 322 26 372 76 q 199 -24 271 -24 z "},",":{"ha":399,"x_min":13,"x_max":388,"o":"m 150 -11 q 72 51 101 8 q 42 149 42 94 q 92 272 42 221 q 214 322 142 322 q 337 272 286 322 q 388 149 388 221 q 349 31 388 96 l 189 -237 l 13 -237 l 150 -11 z "},":":{"ha":399,"x_min":26,"x_max":372,"o":"m 199 378 q 76 428 126 378 q 26 550 26 478 q 76 673 26 622 q 199 724 126 724 q 322 673 271 724 q 372 550 372 622 q 322 428 372 478 q 199 378 271 378 m 199 -24 q 76 26 126 -24 q 26 149 26 76 q 76 272 26 221 q 199 322 126 322 q 322 272 271 322 q 372 149 372 221 q 322 26 372 76 q 199 -24 271 -24 z "},";":{"ha":399,"x_min":13,"x_max":388,"o":"m 150 -11 q 72 51 101 8 q 42 149 42 94 q 92 272 42 221 q 214 322 142 322 q 337 272 286 322 q 388 149 388 221 q 349 31 388 96 l 189 -237 l 13 -237 l 150 -11 m 214 378 q 92 428 142 378 q 42 550 42 478 q 92 673 42 622 q 214 724 142 724 q 337 673 286 724 q 388 550 388 622 q 337 428 388 478 q 214 378 286 378 z "},"…":{"ha":1196,"x_min":26,"x_max":1169,"o":"m 199 -24 q 76 26 126 -24 q 26 149 26 76 q 76 272 26 221 q 199 322 126 322 q 322 272 271 322 q 372 149 372 221 q 322 26 372 76 q 199 -24 271 -24 m 597 -24 q 475 26 525 -24 q 425 149 425 76 q 475 272 425 221 q 597 322 525 322 q 720 272 669 322 q 771 149 771 221 q 720 26 771 76 q 597 -24 669 -24 m 996 -24 q 874 26 924 -24 q 824 149 824 76 q 874 272 824 221 q 996 322 924 322 q 1119 272 1068 322 q 1169 149 1169 221 q 1119 26 1169 76 q 996 -24 1068 -24 z "},"!":{"ha":383,"x_min":18,"x_max":364,"o":"m 46 972 l 338 972 l 310 314 l 74 314 l 46 972 m 192 -24 q 69 20 119 -24 q 18 126 18 64 q 41 199 18 165 q 104 253 64 233 q 192 274 144 274 q 278 253 239 274 q 341 199 318 233 q 364 126 364 165 q 314 21 364 65 q 192 -24 264 -24 z "},"¡":{"ha":383,"x_min":18,"x_max":364,"o":"m 74 408 l 310 408 l 338 -250 l 46 -250 l 74 408 m 192 449 q 104 469 144 449 q 41 523 64 489 q 18 596 18 557 q 69 702 18 658 q 192 746 119 746 q 314 701 264 746 q 364 596 364 657 q 341 523 364 557 q 278 469 318 489 q 192 449 239 449 z "},"?":{"ha":544,"x_min":0,"x_max":561,"o":"m 58 314 q 90 436 58 379 q 179 565 121 493 q 249 660 226 622 q 271 732 271 697 q 249 785 271 764 q 183 806 228 806 q 28 763 124 806 l 28 951 q 226 996 115 996 q 385 968 308 996 q 512 882 463 940 q 561 736 561 824 q 527 613 561 663 q 425 504 493 564 q 325 407 357 447 q 293 314 293 367 l 58 314 m 174 -24 q 51 20 101 -24 q 0 126 0 64 q 23 199 0 165 q 86 253 46 233 q 174 274 126 274 q 260 253 221 274 q 323 199 300 233 q 346 126 346 165 q 296 21 346 65 q 174 -24 246 -24 z "},"¿":{"ha":544,"x_min":-17,"x_max":544,"o":"m 318 -274 q 159 -246 236 -274 q 33 -160 82 -218 q -17 -14 -17 -101 q 17 109 -17 60 q 119 218 51 158 q 219 315 188 275 q 251 408 251 356 l 486 408 q 455 286 486 343 q 365 157 424 229 q 296 63 318 100 q 274 -10 274 25 q 295 -62 274 -42 q 361 -83 317 -83 q 517 -40 421 -83 l 517 -229 q 318 -274 429 -274 m 371 449 q 284 469 324 449 q 222 523 244 489 q 199 596 199 557 q 249 701 199 657 q 371 746 299 746 q 494 702 443 746 q 544 596 544 658 q 522 523 544 557 q 458 469 499 489 q 371 449 418 449 z "},"·":{"ha":399,"x_min":26,"x_max":374,"o":"m 200 261 q 77 311 128 261 q 26 433 26 361 q 77 556 26 506 q 200 607 128 607 q 323 556 272 607 q 374 433 374 506 q 323 311 374 361 q 200 261 272 261 z "},"•":{"ha":496,"x_min":17,"x_max":479,"o":"m 247 156 q 132 187 185 156 q 48 271 79 218 q 17 386 17 324 q 48 502 17 449 q 132 587 79 556 q 247 618 185 618 q 363 587 310 618 q 448 502 417 556 q 479 386 479 449 q 448 271 479 324 q 363 187 417 218 q 247 156 310 156 z "},"*":{"ha":533,"x_min":-3,"x_max":536,"o":"m 51 610 l 142 733 l -3 779 l 44 928 l 189 881 l 189 1032 l 344 1032 l 344 881 l 489 928 l 536 779 l 392 733 l 482 610 l 356 519 l 267 642 l 178 519 l 51 610 z "},"#":{"ha":1006,"x_min":-21,"x_max":1026,"o":"m 142 192 l -21 192 l 17 369 l 179 369 l 229 603 l 67 603 l 104 781 l 267 781 l 308 972 l 486 972 l 444 781 l 678 781 l 719 972 l 897 972 l 856 781 l 1026 781 l 989 603 l 818 603 l 767 369 l 939 369 l 901 192 l 731 192 l 690 0 l 513 0 l 553 192 l 319 192 l 279 0 l 101 0 l 142 192 m 590 369 l 640 603 l 407 603 l 357 369 l 590 369 z "},"/":{"ha":551,"x_min":-49,"x_max":600,"o":"m 383 972 l 600 972 l 168 0 l -49 0 l 383 972 z "},"\\":{"ha":551,"x_min":-49,"x_max":600,"o":"m -49 972 l 168 972 l 600 0 l 383 0 l -49 972 z "},"-":{"ha":429,"x_min":42,"x_max":388,"o":"m 42 551 l 388 551 l 388 313 l 42 313 l 42 551 z "},"­":{"ha":429,"x_min":42,"x_max":388,"o":"m 42 551 l 388 551 l 388 313 l 42 313 l 42 551 z "},"–":{"ha":778,"x_min":42,"x_max":736,"o":"m 42 551 l 736 551 l 736 313 l 42 313 l 42 551 z "},"—":{"ha":1181,"x_min":42,"x_max":1139,"o":"m 42 551 l 1139 551 l 1139 313 l 42 313 l 42 551 z "},"_":{"ha":832,"x_min":42,"x_max":790,"o":"m 42 -43 l 790 -43 l 790 -224 l 42 -224 l 42 -43 z "},"(":{"ha":397,"x_min":1,"x_max":429,"o":"m 157 -250 q 35 138 69 -24 q 1 443 1 300 q 41 782 1 613 q 157 1150 81 951 l 429 1150 q 316 792 349 964 q 283 440 283 619 q 317 82 283 253 q 429 -250 350 -89 l 157 -250 z "},")":{"ha":397,"x_min":-32,"x_max":396,"o":"m -32 -250 q 81 82 47 -89 q 114 440 114 253 q 81 792 114 619 q -32 1150 49 964 l 240 1150 q 356 782 317 951 q 396 443 396 613 q 362 138 396 300 q 240 -250 328 -24 l -32 -250 z "},"{":{"ha":494,"x_min":-15,"x_max":514,"o":"m 310 -250 q 117 -194 171 -250 q 63 -29 63 -137 l 63 357 q 52 391 63 382 q 22 400 42 400 l -15 400 l -15 621 l 22 621 q 53 632 44 621 q 63 664 63 643 l 63 929 q 124 1102 63 1054 q 306 1150 186 1150 l 514 1150 l 514 972 l 351 972 q 317 961 326 972 q 308 928 308 950 l 308 694 q 272 572 308 615 q 167 511 236 528 q 276 442 244 490 q 308 317 308 393 l 308 -29 q 319 -63 308 -54 q 353 -72 331 -72 l 514 -72 l 514 -250 l 310 -250 z "},"}":{"ha":494,"x_min":-19,"x_max":510,"o":"m -19 -72 l 142 -72 q 175 -63 164 -72 q 186 -29 186 -54 l 186 317 q 218 442 186 393 q 328 511 250 490 q 222 572 258 528 q 186 694 186 615 l 186 928 q 177 961 186 950 q 143 972 168 972 l -19 972 l -19 1150 l 189 1150 q 370 1102 308 1150 q 432 929 432 1054 l 432 664 q 441 632 432 643 q 472 621 450 621 l 510 621 l 510 400 l 472 400 q 442 391 453 400 q 432 357 432 382 l 432 -29 q 378 -194 432 -137 q 185 -250 324 -250 l -19 -250 l -19 -72 z "},"[":{"ha":482,"x_min":50,"x_max":501,"o":"m 50 1150 l 501 1150 l 501 972 l 296 972 l 296 -72 l 501 -72 l 501 -250 l 50 -250 l 50 1150 z "},"]":{"ha":482,"x_min":-19,"x_max":432,"o":"m -19 -72 l 186 -72 l 186 972 l -19 972 l -19 1150 l 432 1150 l 432 -250 l -19 -250 l -19 -72 z "},"‚":{"ha":399,"x_min":13,"x_max":388,"o":"m 150 -11 q 72 51 101 8 q 42 149 42 94 q 92 272 42 221 q 214 322 142 322 q 337 272 286 322 q 388 149 388 221 q 349 31 388 96 l 189 -237 l 13 -237 l 150 -11 z "},"„":{"ha":797,"x_min":13,"x_max":786,"o":"m 150 -11 q 72 51 101 8 q 42 149 42 94 q 92 272 42 221 q 214 322 142 322 q 337 272 286 322 q 388 149 388 221 q 349 31 388 96 l 189 -237 l 13 -237 l 150 -11 m 549 -11 q 470 51 500 8 q 440 149 440 94 q 490 272 440 221 q 613 322 540 322 q 735 272 685 322 q 786 149 786 221 q 747 31 786 96 l 588 -237 l 411 -237 l 549 -11 z "},"“":{"ha":797,"x_min":11,"x_max":785,"o":"m 185 435 q 62 485 113 435 q 11 608 11 536 q 50 726 11 661 l 210 994 l 386 994 l 249 768 q 327 706 297 749 q 357 608 357 663 q 307 485 357 536 q 185 435 257 435 m 583 435 q 460 485 511 435 q 410 608 410 536 q 449 726 410 661 l 608 994 l 785 994 l 647 768 q 726 706 696 749 q 756 608 756 663 q 706 485 756 536 q 583 435 656 435 z "},"”":{"ha":797,"x_min":13,"x_max":786,"o":"m 150 661 q 72 724 101 681 q 42 821 42 767 q 92 944 42 893 q 214 994 142 994 q 337 944 286 994 q 388 821 388 893 q 349 703 388 768 l 189 435 l 13 435 l 150 661 m 549 661 q 470 724 500 681 q 440 821 440 767 q 490 944 440 893 q 613 994 540 994 q 735 944 685 994 q 786 821 786 893 q 747 703 786 768 l 588 435 l 411 435 l 549 661 z "},"‘":{"ha":399,"x_min":11,"x_max":386,"o":"m 185 435 q 62 485 113 435 q 11 608 11 536 q 50 726 11 661 l 210 994 l 386 994 l 249 768 q 327 706 297 749 q 357 608 357 663 q 307 485 357 536 q 185 435 257 435 z "},"’":{"ha":399,"x_min":13,"x_max":388,"o":"m 150 661 q 72 724 101 681 q 42 821 42 767 q 92 944 42 893 q 214 994 142 994 q 337 944 286 994 q 388 821 388 893 q 349 703 388 768 l 189 435 l 13 435 l 150 661 z "},"«":{"ha":406,"x_min":-25,"x_max":432,"o":"m -25 365 l 172 671 l 432 671 l 229 365 l 432 79 l 172 79 l -25 365 z "},"»":{"ha":406,"x_min":-26,"x_max":431,"o":"m 176 365 l -26 671 l 233 671 l 431 365 l 233 79 l -26 79 l 176 365 z "},"‹":{"ha":406,"x_min":-25,"x_max":432,"o":"m -25 365 l 172 671 l 432 671 l 229 365 l 432 79 l 172 79 l -25 365 z "},"›":{"ha":406,"x_min":-26,"x_max":431,"o":"m 176 365 l -26 671 l 233 671 l 431 365 l 233 79 l -26 79 l 176 365 z "},"\"":{"ha":611,"x_min":50,"x_max":561,"o":"m 346 996 l 561 996 l 561 544 l 346 544 l 346 996 m 50 996 l 265 996 l 265 544 l 50 544 l 50 996 z "},"'":{"ha":315,"x_min":50,"x_max":265,"o":"m 50 996 l 265 996 l 265 544 l 50 544 l 50 996 z "},"ƒ":{"ha":533,"x_min":-3,"x_max":522,"o":"m 22 -204 q 78 -155 58 -190 q 97 -75 97 -119 l 97 354 l -3 354 l -3 593 l 97 593 l 97 686 q 171 913 97 842 q 368 985 244 985 q 522 954 454 985 l 522 717 q 443 739 475 739 q 389 679 389 739 l 389 593 l 499 593 l 499 354 l 389 354 l 389 -75 q 368 -155 389 -119 q 314 -204 347 -190 l 22 -204 z "},"@":{"ha":1217,"x_min":3,"x_max":1214,"o":"m 582 -179 q 282 -106 414 -179 q 76 99 150 -33 q 3 404 3 232 q 81 715 3 581 q 299 922 158 849 q 624 996 439 996 q 933 930 799 996 q 1140 744 1067 864 q 1214 468 1214 624 q 1177 275 1214 358 q 1072 147 1140 192 q 913 101 1004 101 q 769 133 828 101 q 682 221 710 165 q 528 140 628 140 q 374 216 431 140 q 318 415 318 292 q 374 617 318 540 q 522 693 431 693 q 646 644 593 693 l 646 681 l 876 681 l 876 353 q 891 319 876 332 q 929 307 906 307 q 996 349 971 307 q 1021 467 1021 392 q 971 651 1021 569 q 830 777 921 732 q 621 822 739 822 q 399 770 494 822 q 250 624 303 718 q 197 404 197 529 q 247 188 197 282 q 385 42 296 94 q 592 -10 475 -10 q 724 6 658 -10 q 835 50 790 22 l 883 -125 q 740 -165 821 -150 q 582 -179 660 -179 m 588 343 q 631 363 615 343 q 646 415 646 382 q 630 471 646 451 q 588 490 614 490 q 544 470 560 490 q 529 415 529 450 q 545 363 529 382 q 588 343 561 343 z "},"&":{"ha":989,"x_min":-10,"x_max":1021,"o":"m 175 560 q 110 658 126 614 q 93 743 93 701 q 174 924 93 853 q 410 996 254 996 q 592 960 519 996 q 698 866 664 924 q 732 744 732 808 q 683 608 732 668 q 542 518 635 549 l 638 415 l 710 532 l 950 431 l 803 236 l 1021 0 l 674 0 l 624 56 q 342 -24 501 -24 q 154 13 233 -24 q 33 113 75 49 q -10 263 -10 178 q 50 434 -10 368 q 197 536 110 500 l 175 560 m 274 296 q 303 230 274 253 q 388 207 333 207 q 474 225 433 207 l 328 389 q 274 296 274 356 m 356 749 q 369 709 356 728 q 408 663 382 690 q 459 701 442 679 q 476 747 476 724 q 460 786 476 771 q 417 801 444 801 q 372 787 389 801 q 356 749 356 772 z "},"¶":{"ha":864,"x_min":-12,"x_max":865,"o":"m 275 399 l 264 399 q 119 435 182 399 q 22 536 57 471 q -12 686 -12 601 q 66 894 -12 815 q 274 972 144 972 l 865 972 l 865 776 l 786 776 l 786 -250 l 571 -250 l 571 776 l 490 776 l 490 -250 l 275 -250 l 275 399 z "},"§":{"ha":656,"x_min":22,"x_max":639,"o":"m 261 -101 q 143 -85 204 -101 q 36 -24 82 -69 l 36 217 q 128 148 72 179 q 243 117 183 117 q 300 147 300 117 q 283 172 300 163 q 225 194 265 181 q 126 234 167 213 q 53 301 85 256 q 22 424 22 347 q 99 603 22 538 q 76 706 76 647 q 120 845 76 790 q 232 925 164 900 q 378 950 300 950 q 613 872 515 950 l 613 657 q 419 725 515 725 q 361 699 361 725 q 380 675 361 683 q 443 657 399 667 q 590 585 540 633 q 639 447 639 536 q 563 261 639 335 q 585 167 585 221 q 542 24 585 85 q 425 -69 499 -36 q 261 -101 351 -101 m 268 432 q 342 381 268 400 q 386 411 386 385 q 369 437 386 428 q 311 458 351 446 l 304 461 q 268 432 268 454 z "},"©":{"ha":1108,"x_min":1,"x_max":1108,"o":"m 547 -24 q 274 46 399 -24 q 75 233 149 115 q 1 493 1 351 q 75 743 1 628 q 274 927 149 858 q 547 996 400 996 q 831 927 703 996 q 1034 743 960 858 q 1108 493 1108 628 q 1034 233 1108 351 q 831 45 960 114 q 547 -24 703 -24 m 550 238 q 421 271 479 238 q 330 361 363 304 q 297 486 297 418 q 330 612 297 554 q 421 703 363 669 q 550 736 479 736 q 675 703 619 736 l 675 528 q 628 548 649 542 q 578 554 607 554 q 525 535 543 554 q 507 486 507 515 q 525 438 507 457 q 578 419 543 419 q 675 460 642 419 l 675 268 q 550 238 621 238 m 547 115 q 757 166 664 115 q 902 303 850 217 q 954 493 954 389 q 901 675 954 592 q 756 808 849 758 q 547 857 663 857 q 348 808 438 857 q 207 674 258 758 q 156 493 156 590 q 207 303 156 390 q 348 166 258 217 q 547 115 438 115 z "},"®":{"ha":754,"x_min":10,"x_max":744,"o":"m 372 319 q 190 365 274 319 q 58 490 107 411 q 10 663 10 569 q 58 828 10 751 q 190 950 107 904 q 372 996 274 996 q 560 951 475 996 q 695 828 646 906 q 744 663 744 751 q 695 490 744 568 q 560 365 646 411 q 372 319 475 319 m 368 614 l 358 614 l 358 503 l 244 503 l 244 826 l 379 826 q 475 807 433 826 q 517 721 517 788 q 469 642 517 663 l 528 503 l 408 503 l 368 614 m 372 411 q 512 444 450 411 q 608 535 574 478 q 643 663 643 593 q 608 783 643 728 q 512 870 574 838 q 372 903 450 903 q 240 870 300 903 q 147 783 181 838 q 113 663 113 728 q 147 537 113 594 q 240 445 181 479 q 372 411 300 411 m 369 690 q 400 719 400 690 q 369 744 400 744 l 358 744 l 358 690 l 369 690 z "},"™":{"ha":1015,"x_min":7,"x_max":953,"o":"m 7 972 l 365 972 l 365 832 l 275 832 l 275 486 l 97 486 l 97 832 l 7 832 l 7 972 m 383 972 l 613 972 l 668 701 l 724 972 l 953 972 l 953 486 l 785 486 l 785 782 l 721 486 l 615 486 l 551 788 l 551 486 l 383 486 l 383 972 z "},"°":{"ha":372,"x_min":29,"x_max":343,"o":"m 158 714 q 67 752 106 714 q 29 843 29 790 q 67 934 29 896 q 158 972 106 972 l 214 972 q 305 934 267 972 q 343 843 343 896 q 305 752 343 790 q 214 714 267 714 l 158 714 m 214 817 q 231 824 224 817 q 239 843 239 832 q 232 861 239 854 q 214 868 225 868 l 158 868 q 140 860 147 868 q 132 843 132 853 q 140 825 132 833 q 158 817 149 817 l 214 817 z "},"|":{"ha":342,"x_min":63,"x_max":279,"o":"m 63 1042 l 279 1042 l 279 -204 l 63 -204 l 63 1042 z "},"¦":{"ha":342,"x_min":63,"x_max":279,"o":"m 63 1042 l 279 1042 l 279 493 l 63 493 l 63 1042 m 63 367 l 279 367 l 279 -181 l 63 -181 l 63 367 z "},"†":{"ha":688,"x_min":-12,"x_max":700,"o":"m 224 432 l -12 432 l -12 671 l 224 671 l 224 996 l 464 996 l 464 671 l 700 671 l 700 432 l 464 432 l 464 -250 l 224 -250 l 224 432 z "},"‡":{"ha":740,"x_min":14,"x_max":726,"o":"m 250 39 l 14 39 l 14 278 l 250 278 l 250 469 l 14 469 l 14 708 l 250 708 l 250 996 l 490 996 l 490 708 l 726 708 l 726 469 l 490 469 l 490 278 l 726 278 l 726 39 l 490 39 l 490 -250 l 250 -250 l 250 39 z "},"¢":{"ha":571,"x_min":1,"x_max":532,"o":"m 238 3 q 66 129 131 39 q 1 335 1 219 q 66 540 1 449 q 238 667 131 631 l 238 808 l 418 808 l 418 681 q 532 639 482 669 l 532 394 q 466 421 496 413 q 396 429 436 429 q 320 403 346 429 q 294 335 294 376 q 320 267 294 293 q 396 242 346 242 q 532 297 485 242 l 532 29 q 418 -10 479 0 l 418 -139 l 238 -139 l 238 3 z "},"¤":{"ha":828,"x_min":18,"x_max":810,"o":"m 18 178 l 103 261 q 49 447 49 343 q 103 632 49 547 l 18 717 l 144 843 l 233 753 q 414 799 317 799 q 594 753 510 799 l 683 843 l 810 717 l 725 632 q 781 447 781 546 q 725 261 781 346 l 810 178 l 683 51 l 592 140 q 414 97 510 97 q 236 140 318 97 l 144 51 l 18 178 m 414 243 q 551 300 503 243 q 600 447 600 357 q 551 594 600 536 q 414 653 503 653 q 276 595 322 653 q 229 447 229 538 q 275 299 229 356 q 414 243 321 243 z "},"$":{"ha":761,"x_min":15,"x_max":753,"o":"m 286 -22 q 32 79 121 -10 l 32 394 q 155 303 82 344 q 306 263 228 263 q 363 274 346 263 q 381 303 381 285 q 357 338 381 325 q 282 365 333 350 q 151 417 206 389 q 56 506 97 446 q 15 667 15 567 q 91 881 15 803 q 286 983 167 958 l 286 1147 l 481 1147 l 481 992 q 718 893 618 974 l 718 611 q 465 701 592 701 q 389 667 389 701 q 413 636 389 647 q 492 613 438 625 q 639 560 583 590 q 724 478 694 529 q 753 344 753 426 q 679 119 753 208 q 481 -4 606 31 l 481 -178 l 286 -178 l 286 -22 z "},"€":{"ha":856,"x_min":3,"x_max":814,"o":"m 561 -24 q 275 71 396 -24 q 111 326 154 165 l 3 326 l 3 444 l 93 444 l 92 486 l 92 497 l 3 497 l 3 615 l 104 615 q 192 817 128 731 q 351 949 256 903 q 561 996 446 996 q 814 929 700 996 l 814 644 q 614 743 714 743 q 504 710 549 743 q 439 615 460 676 l 692 615 l 661 497 l 421 497 l 421 486 l 422 444 l 651 444 l 621 326 l 453 326 q 611 231 500 231 q 814 336 740 231 l 814 42 q 561 -24 701 -24 z "},"£":{"ha":758,"x_min":32,"x_max":749,"o":"m 32 204 q 153 227 119 204 q 186 303 186 250 q 178 365 186 335 l 32 365 l 32 564 l 103 564 q 74 710 74 647 q 130 870 74 806 q 280 965 186 935 q 486 996 374 996 q 674 974 582 996 l 674 753 q 593 782 629 772 q 517 792 557 792 q 378 679 378 792 q 401 564 378 640 l 693 564 l 693 365 l 451 365 l 451 354 q 393 204 451 265 l 613 204 q 749 224 679 204 l 749 46 q 685 11 715 22 q 610 0 656 0 l 32 0 l 32 204 z "},"¥":{"ha":897,"x_min":-19,"x_max":917,"o":"m 271 188 l 69 188 l 69 365 l 271 365 l 271 408 l 254 442 l 69 442 l 69 619 l 163 619 l -19 974 l 336 974 l 449 650 l 561 974 l 917 974 l 735 619 l 828 619 l 828 442 l 643 442 l 626 408 l 626 365 l 828 365 l 828 188 l 626 188 l 626 0 l 271 0 l 271 188 z "},"+":{"ha":824,"x_min":63,"x_max":761,"o":"m 293 313 l 63 313 l 63 551 l 293 551 l 293 782 l 532 782 l 532 551 l 761 551 l 761 313 l 532 313 l 532 83 l 293 83 l 293 313 z "},"−":{"ha":824,"x_min":63,"x_max":761,"o":"m 63 551 l 761 551 l 761 313 l 63 313 l 63 551 z "},"×":{"ha":824,"x_min":56,"x_max":768,"o":"m 56 244 l 244 433 l 56 621 l 225 789 l 413 601 l 599 788 l 768 619 l 582 433 l 768 246 l 599 78 l 413 264 l 225 76 l 56 244 z "},"÷":{"ha":824,"x_min":63,"x_max":761,"o":"m 63 551 l 761 551 l 761 313 l 63 313 l 63 551 m 411 -24 q 308 19 351 -24 q 265 122 265 63 q 308 226 265 183 q 411 268 351 268 q 515 226 472 268 q 557 122 557 183 q 515 19 557 63 q 411 -24 472 -24 m 411 597 q 308 640 351 597 q 265 743 265 683 q 308 847 265 804 q 411 889 351 889 q 515 847 472 889 q 557 743 557 804 q 515 640 557 683 q 411 597 472 597 z "},"=":{"ha":824,"x_min":63,"x_max":761,"o":"m 63 614 l 761 614 l 761 436 l 63 436 l 63 614 m 63 360 l 761 360 l 761 182 l 63 182 l 63 360 z "},"≠":{"ha":824,"x_min":63,"x_max":761,"o":"m 221 182 l 63 182 l 63 360 l 301 360 l 335 436 l 63 436 l 63 614 l 415 614 l 507 819 l 696 819 l 604 614 l 761 614 l 761 436 l 524 436 l 490 360 l 761 360 l 761 182 l 410 182 l 318 -24 l 129 -24 l 221 182 z "},">":{"ha":824,"x_min":69,"x_max":754,"o":"m 456 442 l 69 579 l 69 843 l 754 571 l 754 299 l 69 28 l 69 290 l 456 442 z "},"<":{"ha":824,"x_min":69,"x_max":754,"o":"m 69 299 l 69 571 l 754 843 l 754 579 l 368 442 l 754 290 l 754 28 l 69 299 z "},"≥":{"ha":824,"x_min":69,"x_max":754,"o":"m 69 457 l 478 565 l 69 661 l 69 925 l 754 694 l 754 422 l 69 194 l 69 457 m 69 161 l 754 161 l 754 -78 l 69 -78 l 69 161 z "},"≤":{"ha":824,"x_min":69,"x_max":754,"o":"m 69 422 l 69 694 l 754 925 l 754 661 l 346 565 l 754 457 l 754 194 l 69 422 m 69 161 l 754 161 l 754 -78 l 69 -78 l 69 161 z "},"±":{"ha":824,"x_min":32,"x_max":731,"o":"m 263 390 l 32 390 l 32 629 l 263 629 l 263 800 l 501 800 l 501 629 l 731 629 l 731 390 l 501 390 l 501 219 l 263 219 l 263 390 m 32 163 l 731 163 l 731 -79 l 32 -79 l 32 163 z "},"≈":{"ha":824,"x_min":71,"x_max":754,"o":"m 71 532 q 244 649 132 649 q 347 628 289 649 l 515 567 q 579 554 551 554 q 703 654 664 554 l 754 468 q 581 351 693 351 q 478 372 536 351 l 310 433 q 246 446 275 446 q 122 346 161 446 l 71 532 m 71 231 q 244 347 132 347 q 347 326 289 347 l 515 265 q 579 253 551 253 q 703 353 664 253 l 754 167 q 581 50 693 50 q 478 71 536 50 l 310 132 q 246 144 275 144 q 122 44 161 144 l 71 231 z "},"~":{"ha":824,"x_min":71,"x_max":754,"o":"m 71 404 q 244 521 132 521 q 347 500 289 521 l 515 439 q 579 426 551 426 q 703 526 664 426 l 754 340 q 581 224 693 224 q 478 244 536 224 l 310 306 q 246 318 275 318 q 122 218 161 318 l 71 404 z "},"^":{"ha":824,"x_min":4,"x_max":819,"o":"m 406 760 l 276 457 l 4 457 l 276 972 l 549 972 l 819 457 l 549 457 l 406 760 z "},"%":{"ha":1043,"x_min":-10,"x_max":1054,"o":"m 753 996 l 947 996 l 283 -24 l 89 -24 l 753 996 m 213 486 q 99 518 150 486 q 19 606 49 550 q -10 729 -10 663 q 19 851 -10 796 q 99 940 49 907 q 213 972 150 972 q 326 940 275 972 q 407 851 378 907 q 436 729 436 796 q 407 606 436 663 q 326 518 378 550 q 213 486 275 486 m 213 653 q 257 674 242 653 q 272 729 272 696 q 257 784 272 763 q 213 806 242 806 q 169 784 185 806 q 154 729 154 763 q 169 674 154 696 q 213 653 185 653 m 831 0 q 717 32 768 0 q 638 120 667 64 q 608 243 608 176 q 638 365 608 310 q 717 453 667 421 q 831 486 768 486 q 944 453 893 486 q 1025 365 996 421 q 1054 243 1054 310 q 1025 120 1054 176 q 944 32 996 64 q 831 0 893 0 m 831 167 q 875 188 860 167 q 890 243 890 210 q 875 298 890 276 q 831 319 860 319 q 788 298 803 319 q 772 243 772 276 q 788 188 772 210 q 831 167 803 167 z "},"‰":{"ha":1553,"x_min":-11,"x_max":1564,"o":"m 751 996 l 946 996 l 282 -24 l 88 -24 l 751 996 m 211 486 q 98 518 149 486 q 18 606 47 550 q -11 729 -11 663 q 18 851 -11 796 q 98 940 47 907 q 211 972 149 972 q 325 940 274 972 q 406 851 376 907 q 435 729 435 796 q 406 606 435 663 q 325 518 376 550 q 211 486 274 486 m 211 653 q 256 674 240 653 q 271 729 271 696 q 256 784 271 763 q 211 806 240 806 q 168 784 183 806 q 153 729 153 763 q 168 674 153 696 q 211 653 183 653 m 829 0 q 716 32 767 0 q 636 120 665 64 q 607 243 607 176 q 636 365 607 310 q 716 453 665 421 q 829 486 767 486 q 943 453 892 486 q 1024 365 994 421 q 1053 243 1053 310 q 1024 120 1053 176 q 943 32 994 64 q 829 0 892 0 m 829 167 q 874 188 858 167 q 889 243 889 210 q 874 298 889 276 q 829 319 858 319 q 786 298 801 319 q 771 243 771 276 q 786 188 771 210 q 829 167 801 167 m 1340 0 q 1227 32 1278 0 q 1147 120 1176 64 q 1118 243 1118 176 q 1147 365 1118 310 q 1227 453 1176 421 q 1340 486 1278 486 q 1454 453 1403 486 q 1535 365 1506 421 q 1564 243 1564 310 q 1535 120 1564 176 q 1454 32 1506 64 q 1340 0 1403 0 m 1340 167 q 1385 188 1369 167 q 1400 243 1400 210 q 1385 298 1400 276 q 1340 319 1369 319 q 1297 298 1313 319 q 1282 243 1282 276 q 1297 188 1282 210 q 1340 167 1313 167 z "},"̈":{"ha":0,"x_min":56,"x_max":714,"o":"m 210 736 q 98 773 140 736 q 56 869 56 810 q 97 969 56 932 q 210 1006 138 1006 q 321 968 279 1006 q 363 869 363 931 q 321 773 363 810 q 210 736 279 736 m 560 736 q 448 773 490 736 q 406 869 406 810 q 448 968 406 931 q 560 1006 490 1006 q 672 968 629 1006 q 714 869 714 931 q 672 773 714 810 q 560 736 629 736 z "},"̇":{"ha":0,"x_min":28,"x_max":336,"o":"m 182 736 q 70 773 113 736 q 28 869 28 810 q 70 968 28 931 q 182 1006 113 1006 q 294 968 251 1006 q 336 869 336 931 q 294 773 336 810 q 182 736 251 736 z "},"̀":{"ha":0,"x_min":-11,"x_max":396,"o":"m -11 1000 l 278 1000 l 396 742 l 161 742 l -11 1000 z "},"́":{"ha":0,"x_min":0,"x_max":407,"o":"m 118 1000 l 407 1000 l 235 742 l 0 742 l 118 1000 z "},"̋":{"ha":0,"x_min":26,"x_max":768,"o":"m 125 1000 l 414 1000 l 261 742 l 26 742 l 125 1000 m 479 1000 l 768 1000 l 615 742 l 381 742 l 479 1000 z "},"̂":{"ha":0,"x_min":-4,"x_max":685,"o":"m 185 1000 l 493 1000 l 685 742 l 446 742 l 340 890 l 235 742 l -4 742 l 185 1000 z "},"̌":{"ha":0,"x_min":-4,"x_max":685,"o":"m -4 1000 l 235 1000 l 340 851 l 446 1000 l 685 1000 l 493 742 l 185 742 l -4 1000 z "},"̆":{"ha":0,"x_min":11,"x_max":572,"o":"m 290 726 q 91 801 168 726 q 11 1000 14 876 l 183 1000 q 216 928 186 956 q 290 901 246 901 q 367 928 338 901 q 400 1000 397 956 l 572 1000 q 493 801 569 876 q 290 726 417 726 z "},"̊":{"ha":0,"x_min":7,"x_max":374,"o":"m 190 717 q 99 741 142 717 q 32 808 57 765 q 7 899 7 850 q 32 990 7 947 q 99 1056 57 1032 q 190 1081 142 1081 q 283 1056 240 1081 q 349 990 325 1032 q 374 899 374 949 q 349 807 374 849 q 283 741 325 765 q 190 717 240 717 m 190 861 q 217 873 206 861 q 228 899 228 885 q 217 925 228 914 q 190 936 206 936 q 165 925 176 936 q 153 899 153 914 q 165 873 153 885 q 190 861 176 861 z "},"̃":{"ha":0,"x_min":19,"x_max":501,"o":"m 19 907 q 142 997 64 997 q 215 982 179 997 l 332 933 q 379 924 357 924 q 465 1001 438 924 l 501 839 q 381 749 458 749 q 306 764 347 749 l 188 811 q 142 821 164 821 q 56 744 82 821 l 19 907 z "},"̄":{"ha":0,"x_min":56,"x_max":563,"o":"m 56 961 l 563 961 l 563 768 l 56 768 l 56 961 z "},"̒":{"ha":0,"x_min":-6,"x_max":314,"o":"m 214 917 q 285 873 258 903 q 313 806 313 843 q 266 719 313 754 q 154 683 219 683 q 41 719 88 683 q -6 806 -6 754 q 31 888 -6 842 l 153 1042 l 314 1042 l 214 917 z "},"̦":{"ha":0,"x_min":-6,"x_max":314,"o":"m 94 -282 q 23 -238 50 -268 q -4 -171 -4 -208 q 42 -84 -4 -119 q 154 -49 89 -49 q 267 -84 221 -49 q 314 -171 314 -119 q 278 -253 314 -207 l 156 -407 l -6 -407 l 94 -282 z "},"̧":{"ha":0,"x_min":13,"x_max":324,"o":"m 110 -324 q 13 -315 57 -324 l 13 -231 q 39 -232 17 -232 q 87 -222 68 -232 q 106 -197 106 -212 q 63 -174 106 -174 q 13 -181 40 -174 l 13 -126 l 133 51 l 229 17 l 186 -71 l 189 -71 q 289 -105 254 -71 q 324 -187 324 -139 q 266 -287 324 -250 q 110 -324 208 -324 z "},"̨":{"ha":0,"x_min":-14,"x_max":313,"o":"m 171 -321 q 36 -283 86 -321 q -14 -182 -14 -246 q 41 -62 -14 -121 q 197 49 96 -3 l 267 4 q 224 -32 247 -12 q 187 -74 201 -51 q 172 -125 172 -97 q 188 -170 172 -154 q 232 -186 203 -186 q 313 -158 272 -186 l 313 -287 q 171 -321 250 -321 z "}}}
